<?xml version="1.0" encoding="UTF-8" standalone="no"?>
<!-- Created with Inkscape (http://www.inkscape.org/) -->

<svg
   width="16"
   height="16"
   viewBox="0 0 4.2333333 4.2333333"
   version="1.1"
   id="svg1"
   inkscape:version="1.3.2 (091e20e, 2023-11-25)"
   sodipodi:docname="ai.svg"
   xmlns:inkscape="http://www.inkscape.org/namespaces/inkscape"
   xmlns:sodipodi="http://sodipodi.sourceforge.net/DTD/sodipodi-0.dtd"
   xmlns="http://www.w3.org/2000/svg"
   xmlns:svg="http://www.w3.org/2000/svg">
  <sodipodi:namedview
     id="namedview1"
     pagecolor="#ffffff"
     bordercolor="#000000"
     borderopacity="0.25"
     inkscape:showpageshadow="2"
     inkscape:pageopacity="0.0"
     inkscape:pagecheckerboard="true"
     inkscape:deskcolor="#d1d1d1"
     inkscape:document-units="mm"
     inkscape:zoom="58.297243"
     inkscape:cx="2.8646295"
     inkscape:cy="6.8785414"
     inkscape:window-width="1312"
     inkscape:window-height="959"
     inkscape:window-x="0"
     inkscape:window-y="44"
     inkscape:window-maximized="0"
     inkscape:current-layer="layer1" />
  <defs
     id="defs1" />
  <g
     inkscape:label="Layer 1"
     inkscape:groupmode="layer"
     id="layer1"
     transform="translate(-148.16687,-198.4375)">
    <path
       style="font-variation-settings:normal;vector-effect:none;fill:#b3b3b3;fill-opacity:1;stroke-width:0.0533098;stroke-linecap:butt;stroke-linejoin:miter;stroke-miterlimit:4;stroke-dasharray:none;stroke-dashoffset:0;stroke-opacity:1;-inkscape-stroke:none;stop-color:#000000"
       d="m 149.05611,202.46369 v -0.20283 l -0.1795,-0.001 c -0.17751,-0.001 -0.17974,-0.001 -0.20302,-0.0123 -0.0279,-0.0127 -0.0612,-0.0464 -0.0749,-0.0764 -0.009,-0.0204 -0.0103,-0.0274 -0.0112,-0.20514 l -0.002,-0.18386 h -0.20747 -0.20747 v -0.14437 -0.14437 h 0.2077 0.20771 v -0.21656 -0.21656 h -0.20771 -0.2077 v -0.14438 -0.14438 h 0.2077 0.20771 v -0.21656 -0.21657 h -0.20771 -0.2077 v -0.14438 -0.14437 h 0.2077 0.20771 v -0.21655 -0.21657 h -0.20771 -0.2077 v -0.14438 -0.14438 h 0.20747 0.20748 l 0.002,-0.18384 c 0.002,-0.18087 0.002,-0.18422 0.0118,-0.20683 0.013,-0.0288 0.0458,-0.0613 0.0755,-0.075 0.0222,-0.009 0.0258,-0.009 0.20206,-0.011 l 0.17949,-0.001 v -0.20283 -0.20283 h 0.1445 0.14449 v 0.20304 0.20303 h 0.21674 0.21673 v -0.20303 -0.20304 h 0.14449 0.14449 v 0.20304 0.20303 h 0.21675 0.21673 v -0.20303 -0.20304 h 0.14451 0.14448 v 0.20304 0.20303 h 0.21673 0.21674 v -0.20303 -0.20304 h 0.1445 0.14449 v 0.20283 0.20283 l 0.17949,0.001 c 0.17751,0.001 0.17975,0.001 0.20303,0.0122 0.0279,0.0127 0.0612,0.0464 0.0749,0.0764 0.009,0.0205 0.0103,0.0274 0.0112,0.20513 l 0.002,0.18384 h 0.20746 0.20749 v 0.14437 0.14437 h -0.20771 -0.2077 v 0.21658 0.21656 h 0.2077 0.20771 v 0.14438 0.14437 h -0.20771 -0.2077 v 0.21657 0.21656 h 0.2077 0.20771 v 0.14436 0.14439 h -0.20771 -0.2077 v 0.21655 0.21657 h 0.2077 0.20771 v 0.14437 0.14438 h -0.2075 -0.20746 l -0.002,0.18383 c -0.002,0.17791 -0.002,0.18456 -0.0112,0.20516 -0.0138,0.0299 -0.047,0.0636 -0.0749,0.0764 -0.0233,0.011 -0.0256,0.011 -0.20303,0.0123 l -0.17949,0.001 v 0.20283 0.20283 h -0.14449 -0.1445 v -0.20303 -0.20303 h -0.21674 -0.21673 v 0.20303 0.20303 h -0.14449 -0.14449 v -0.20303 -0.20303 h -0.21675 -0.21673 v 0.20303 0.20303 h -0.14449 -0.14449 v -0.20303 -0.20303 h -0.21674 -0.21675 v 0.20303 0.20303 h -0.14448 -0.14449 z m 2.63698,-1.90865 v -1.41669 h -1.4088 -1.40881 v 1.41669 1.41668 h 1.40881 1.4088 z m -2.55119,0.91563 c 0,-0.002 0.008,-0.0285 0.0177,-0.0574 0.0193,-0.0573 0.14431,-0.42475 0.19529,-0.57386 0.0173,-0.0507 0.0353,-0.10371 0.0397,-0.11733 0.004,-0.0136 0.041,-0.12129 0.0812,-0.23913 0.0401,-0.11783 0.094,-0.27623 0.11971,-0.35191 0.0257,-0.0757 0.0612,-0.18025 0.0789,-0.23235 0.0178,-0.052 0.0354,-0.10493 0.0392,-0.11735 0.003,-0.0123 0.0103,-0.0271 0.0134,-0.0328 l 0.007,-0.009 h 0.17771 c 0.1444,0 0.17866,8.6e-4 0.1828,0.006 0.004,0.005 0.0748,0.20531 0.0999,0.28262 0.003,0.011 0.0465,0.13632 0.18508,0.54139 0.0327,0.0956 0.0633,0.18487 0.0677,0.19852 0.004,0.0136 0.032,0.0938 0.0611,0.17821 0.029,0.0844 0.0565,0.16456 0.0611,0.17822 0.004,0.0136 0.032,0.0938 0.0611,0.17822 0.029,0.0844 0.0538,0.15798 0.055,0.1636 l 0.002,0.009 -0.19761,-8.7e-4 -0.19764,-8.7e-4 -0.0178,-0.0519 c -0.07,-0.20338 -0.12252,-0.35742 -0.12814,-0.37573 -0.003,-0.0122 -0.0103,-0.0306 -0.0152,-0.0417 l -0.009,-0.0202 h -0.21197 c -0.16398,0 -0.21287,0.001 -0.21646,0.005 -0.002,0.004 -0.0355,0.099 -0.0732,0.21319 -0.0859,0.26021 -0.0861,0.2605 -0.0916,0.26731 -0.005,0.007 -0.3872,0.008 -0.3872,7.9e-4 z m 0.87598,-0.82383 c 0,-0.005 -0.0112,-0.0403 -0.0249,-0.0801 -0.0138,-0.04 -0.0378,-0.11008 -0.0534,-0.15581 -0.0156,-0.0458 -0.0304,-0.0839 -0.0327,-0.0847 -0.004,-0.001 -0.11034,0.30593 -0.11023,0.32012 6e-5,0.007 0.009,0.007 0.11068,0.007 0.1,0 0.11068,-7.9e-4 0.11068,-0.007 z m 0.9042,0.22521 8.6e-4,-0.60351 0.18115,-8.7e-4 c 0.14883,-8.7e-4 0.18206,-4e-5 0.18628,0.005 0.003,0.005 0.005,0.16292 0.004,0.6035 l -8.5e-4,0.59732 -0.18627,8.7e-4 -0.18629,8.7e-4 z m 0.11521,-0.7634 c -0.14493,-0.0464 -0.19169,-0.23306 -0.086,-0.34376 0.0451,-0.0472 0.0916,-0.0669 0.15704,-0.0669 0.0503,0 0.0888,0.0122 0.12534,0.0396 0.0501,0.0378 0.0785,0.092 0.0834,0.15935 0.007,0.0963 -0.0494,0.18032 -0.14192,0.21122 -0.0367,0.0123 -0.10049,0.0126 -0.13781,5.3e-4 z"
       id="path1" />
  </g>
</svg>
