<?xml version="1.0" encoding="UTF-8" standalone="no"?>
<svg
   width="13"
   height="13"
   clip-rule="evenodd"
   xml:space="preserve"
   version="1.1"
   stroke-miterlimit="10"
   id="svg1"
   sodipodi:docname="consoles-toolwindow_dark.svg"
   inkscape:version="1.3.2 (091e20e, 2023-11-25)"
   xmlns:inkscape="http://www.inkscape.org/namespaces/inkscape"
   xmlns:sodipodi="http://sodipodi.sourceforge.net/DTD/sodipodi-0.dtd"
   xmlns="http://www.w3.org/2000/svg"
   xmlns:svg="http://www.w3.org/2000/svg"><defs
   id="defs1" /><sodipodi:namedview
   id="namedview1"
   pagecolor="#ffffff"
   bordercolor="#000000"
   borderopacity="0.25"
   inkscape:showpageshadow="2"
   inkscape:pageopacity="0.0"
   inkscape:pagecheckerboard="0"
   inkscape:deskcolor="#d1d1d1"
   inkscape:zoom="57.426281"
   inkscape:cx="5.2327958"
   inkscape:cy="9.6210305"
   inkscape:window-width="1560"
   inkscape:window-height="814"
   inkscape:window-x="0"
   inkscape:window-y="44"
   inkscape:window-maximized="0"
   inkscape:current-layer="svg1" />

 <g
   id="g1"
   transform="matrix(1.0462149,0,0,0.9878034,-0.27873859,-1.3752022)">
  <title
   id="title1">Layer 1</title>
  <g
   id="layer0">
   <path
   id="svg_1"
   stroke-width="1.7"
   stroke="#aeb1b3"
   fill="none"
   d="M 9.52076,5.26657 3.45145,5.279 Z" />
   <path
   id="svg_2"
   stroke-width="1.7"
   stroke="#aeb1b3"
   fill="none"
   d="M 9.52156,7.98454 3.45068,7.99606 Z" />
   <path
   id="svg_3"
   stroke-width="1.7"
   stroke="#aeb1b3"
   fill="none"
   d="m 9.52076,10.70154 -6.06931,0.0124 z" />
   <path
   id="svg_4"
   stroke-width="1.7"
   stroke="#aeb1b3"
   fill="none"
   d="m 1.32247,2.39744 h 10.33209 v 11.1788 H 1.32247 Z" />
   <g
   id="svg_5">
    <path
   id="svg_6"
   stroke-width="0.60755"
   stroke-linejoin="round"
   stroke-linecap="round"
   stroke="#adadad"
   fill-rule="nonzero"
   fill="#adadad"
   d="m 2.90516,8.779 1.50475,1.9e-4 H 5.9421 Z" />
    <path
   id="svg_7"
   stroke-width="0.60755"
   stroke-linejoin="round"
   stroke-linecap="round"
   stroke="#adadad"
   fill-rule="nonzero"
   fill="#adadad"
   d="m 2.82949,10.71884 1.57973,2e-4 h 1.60854 z" />
    <path
   id="svg_8"
   stroke-width="0.60755"
   stroke-linejoin="round"
   stroke-linecap="round"
   stroke="#adadad"
   fill-rule="nonzero"
   fill="#adadad"
   d="m 2.82949,12.65864 h 1.23353 l 0.3462,2e-4 h 1.60854 z" />
    <path
   id="svg_9"
   fill-rule="nonzero"
   fill="#326de6"
   d="m 2.90833,14.54144 c -0.19516,0 -0.37949,-0.087 -0.5042,-0.2447 l -1.8975,-2.3647 C 0.38195,11.77444 0.33314,11.57324 0.38195,11.37754 L 1.05962,8.42565 C 1.103,8.22993 1.23311,8.0723 1.41201,7.98527 L 4.15527,6.66974 C 4.242,6.62623 4.3396,6.60457 4.43719,6.60457 c 0.09759,0 0.19516,0.02166 0.2819,0.06517 l 2.74325,1.31012 c 0.17892,0.08703 0.30902,0.24465 0.35242,0.44038 l 0.67767,2.9519 c 0.04333,0.1955 0,0.3967 -0.12467,0.5545 l -1.89752,2.3647 c -0.12472,0.1522 -0.30903,0.2447 -0.50421,0.2447 z" />
    <path
   id="svg_10"
   fill-rule="nonzero"
   fill="#ffffff"
   d="m 4.43176,6.74053 c 0.0759,0 0.1518,0.01624 0.22228,0.04893 l 2.74323,1.31011 c 0.14099,0.0706 0.2494,0.20114 0.2819,0.35335 l 0.67776,2.95172 c 0.03791,0.1576 0,0.3209 -0.10308,0.4458 l -1.8975,2.3647 c -0.09759,0.1252 -0.24935,0.1958 -0.40659,0.1958 H 2.90833 c -0.15721,0 -0.30902,-0.0706 -0.40661,-0.1958 l -1.8975,-2.3647 C 0.50663,11.72554 0.46868,11.56224 0.50121,11.40464 L 1.1789,8.45292 C 1.21685,8.2953 1.31985,8.16475 1.4608,8.09957 L 4.20405,6.78404 C 4.27453,6.75677 4.35586,6.74053 4.43176,6.74053 Z m 0,-0.25549 v 0 c -0.11385,0 -0.22771,0.02708 -0.33613,0.07601 L 1.35237,7.87658 C 1.13552,7.97986 0.98372,8.17017 0.9295,8.40399 l -0.67767,2.95175 c -0.05421,0.2338 0,0.473 0.15178,0.6633 l 1.89752,2.3648 c 0.14638,0.1847 0.36866,0.288 0.60177,0.288 h 3.04146 c 0.23311,0 0.45539,-0.1033 0.60175,-0.288 l 1.89755,-2.3648 c 0.1518,-0.1849 0.206,-0.4295 0.1518,-0.6633 L 7.91775,8.40399 C 7.86352,8.17017 7.71176,7.97986 7.49485,7.87658 L 4.76247,6.56105 C 4.65947,6.51212 4.54561,6.48504 4.43176,6.48504 Z" />
    <path
   id="svg_11"
   fill-rule="nonzero"
   fill="#ffffff"
   d="m 7.18042,11.17104 v 0 0 c -0.00541,0 -0.00541,0 0,0 H 7.17501 c -0.00542,0 -0.01083,0 -0.01083,-0.0054 -0.01083,0 -0.02167,-0.0055 -0.0325,-0.0055 -0.038,-0.0056 -0.0705,-0.011 -0.10302,-0.011 -0.01631,0 -0.03257,0 -0.05424,-0.0054 H 6.969 c -0.11384,-0.0108 -0.206,-0.0217 -0.29274,-0.0489 -0.03799,-0.0163 -0.04882,-0.0381 -0.05966,-0.0598 0,-0.0054 -0.00543,-0.0054 -0.00543,-0.0108 v 0 l -0.07049,-0.0219 c 0.03256,-0.2501 0.02173,-0.511 -0.03793,-0.7664 C 6.44309,9.98044 6.34009,9.74114 6.19916,9.52379 L 6.25335,9.47486 V 9.46403 c 0,-0.02727 0.00541,-0.05435 0.02714,-0.08162 C 6.34552,9.32265 6.42685,9.27372 6.52442,9.21396 v 0 C 6.54068,9.20313 6.557,9.19771 6.57324,9.18669 6.60577,9.17044 6.63284,9.1542 6.66541,9.13234 6.67083,9.12693 6.68167,9.12151 6.6925,9.11068 6.69793,9.10527 6.70334,9.10527 6.70334,9.09985 v 0 C 6.77926,9.03448 6.7955,8.92579 6.74133,8.8552 6.71417,8.8171 6.66541,8.79544 6.6166,8.79544 c -0.04336,0 -0.08135,0.01624 -0.11926,0.04332 v 0 0 C 6.49191,8.84437 6.49191,8.84437 6.48651,8.84978 6.47567,8.8552 6.47024,8.86603 6.45941,8.87144 6.43225,8.89871 6.41058,8.92037 6.38892,8.94764 6.37808,8.95847 6.36725,8.97472 6.35092,8.98555 v 0 C 6.27508,9.06717 6.20459,9.13234 6.13409,9.18128 6.11783,9.19211 6.10157,9.19771 6.08531,9.19771 c -0.01086,0 -0.02169,0 -0.03253,-0.0056 H 6.04193 v 0 L 5.97688,9.23562 C 5.9064,9.15961 5.8305,9.09424 5.7546,9.02907 5.4293,8.77358 5.03353,8.61596 4.62152,8.57786 L 4.61609,8.50727 C 4.61066,8.50185 4.61066,8.50185 4.60525,8.49643 4.58897,8.48 4.5673,8.46375 4.56187,8.42565 4.55645,8.33862 4.5673,8.24095 4.57814,8.13206 V 8.12665 C 4.57814,8.1104 4.58356,8.08855 4.58897,8.0723 4.5944,8.03981 4.59983,8.00713 4.60525,7.96903 v -0.03269 -0.01625 0 0 c 0,-0.09786 -0.0759,-0.17928 -0.16806,-0.17928 -0.04338,0 -0.08676,0.02166 -0.11928,0.05435 -0.03253,0.03249 -0.04879,0.076 -0.04879,0.12493 v 0 0 0.01084 0.03268 c 0,0.0381 0.00541,0.07059 0.01626,0.10328 0.00543,0.01624 0.00543,0.03268 0.01086,0.05434 V 8.12665 C 4.30707,8.23534 4.32333,8.3332 4.31248,8.42024 4.30707,8.45833 4.28538,8.47458 4.26912,8.49083 4.26369,8.49643 4.26369,8.49643 4.25827,8.50185 v 0 L 4.25286,8.57244 C 4.15527,8.58327 4.05768,8.5943 3.9601,8.61596 3.54264,8.7084 3.17399,8.92037 2.88664,9.22479 L 2.83243,9.18669 H 2.82159 c -0.01085,0 -0.02169,0.00542 -0.03252,0.00542 -0.01628,0 -0.03253,-0.00542 -0.04881,-0.01625 C 2.66979,9.12693 2.59931,9.05634 2.52341,8.97472 v 0 C 2.51258,8.96389 2.50172,8.94764 2.48546,8.93662 2.46377,8.90954 2.44208,8.88769 2.41498,8.86061 2.40956,8.8552 2.39872,8.84978 2.38787,8.83876 2.38246,8.83334 2.37703,8.83334 2.37703,8.82793 v 0 C 2.34451,8.80085 2.30113,8.78441 2.25775,8.78441 2.20897,8.78441 2.16018,8.80627 2.13306,8.84437 2.07885,8.91496 2.09511,9.02365 2.17102,9.08883 v 0 0 c 0.00542,0 0.00542,0.00541 0.01083,0.00541 0.01085,0.00561 0.01628,0.01644 0.02712,0.02186 0.03252,0.02166 0.05964,0.0381 0.09216,0.05434 0.01626,0.00542 0.03252,0.01625 0.04879,0.02727 v 0 C 2.44751,9.25748 2.52884,9.30641 2.59388,9.36617 2.621,9.39325 2.621,9.42052 2.621,9.44778 v 0.01084 0 L 2.67521,9.50755 C 2.66436,9.52379 2.65352,9.53462 2.6481,9.55106 2.37703,9.98044 2.27403,10.48594 2.34451,10.98614 l -0.07048,0.0216 c 0,0.0056 -0.00542,0.0056 -0.00542,0.0111 -0.01086,0.0216 -0.02712,0.0435 -0.05964,0.0597 -0.08133,0.0271 -0.1789,0.0381 -0.29276,0.0489 H 1.91078 c -0.01626,0 -0.03795,0 -0.05421,0.0055 -0.03252,0 -0.06505,0.0054 -0.103,0.0108 -0.01085,0 -0.02169,0.0054 -0.03254,0.0054 -0.00541,0 -0.01084,0 -0.01626,0.0054 v 0 0 c -0.09759,0.0219 -0.15721,0.1143 -0.14095,0.2012 0.01626,0.0762 0.08673,0.1251 0.17347,0.1251 0.01628,0 0.02712,0 0.04338,-0.0054 v 0 0 c 0.00543,0 0.01085,0 0.01085,-0.0054 0.01084,0 0.02167,-0.0056 0.03253,-0.0056 0.03795,-0.0109 0.06505,-0.0217 0.09757,-0.0379 0.01628,-0.0055 0.03254,-0.0165 0.04881,-0.0219 h 0.00542 c 0.103,-0.0379 0.19517,-0.0706 0.2819,-0.0814 h 0.01086 c 0.03252,0 0.05421,0.0162 0.07047,0.0271 0.00543,0 0.00543,0.0054 0.01084,0.0054 v 0 l 0.0759,-0.0109 c 0.13011,0.4023 0.37951,0.7611 0.71021,1.0222 0.07591,0.0597 0.15181,0.1087 0.23312,0.1576 l -0.03253,0.0706 c 0,0.0054 0.00543,0.0054 0.00543,0.0108 0.01084,0.0219 0.02169,0.0489 0.01084,0.087 -0.03253,0.0817 -0.08131,0.1631 -0.14095,0.2555 v 0.0054 c -0.01084,0.0163 -0.02169,0.0273 -0.03255,0.0436 -0.02167,0.0272 -0.03793,0.0543 -0.05962,0.087 -0.00542,0.0054 -0.01085,0.0162 -0.01626,0.0271 0,0.0054 -0.00543,0.0108 -0.00543,0.0108 v 0 0 c -0.04337,0.0924 -0.01083,0.1957 0.07048,0.2338 0.02169,0.0109 0.04338,0.0163 0.06507,0.0163 0.06504,0 0.13011,-0.0434 0.16263,-0.1033 v 0 0 c 0,-0.0054 0.00543,-0.0108 0.00543,-0.0108 0.00543,-0.0109 0.01084,-0.0217 0.01626,-0.0271 0.01627,-0.0381 0.02169,-0.0654 0.03253,-0.0979 0.00543,-0.0164 0.01083,-0.0327 0.01626,-0.0489 v 0 c 0.03795,-0.1087 0.06507,-0.1957 0.11385,-0.2719 0.02169,-0.0325 0.04879,-0.0379 0.07048,-0.049 0.00543,0 0.00543,0 0.01083,-0.0054 v 0 l 0.03795,-0.0706 c 0.23857,0.0925 0.4988,0.1414 0.75903,0.1414 0.15721,0 0.31985,-0.0164 0.47165,-0.0543 0.09759,-0.0219 0.18976,-0.049 0.28192,-0.0817 l 0.03252,0.0598 c 0.00543,0 0.00543,0 0.01086,0.0054 0.0271,0.0054 0.04879,0.0165 0.07047,0.049 0.04336,0.0762 0.07591,0.1686 0.11384,0.2719 v 0.0054 c 0.00542,0.0162 0.01085,0.0325 0.01628,0.0489 0.01083,0.0325 0.01626,0.0652 0.03252,0.0979 0.00543,0.0108 0.01086,0.0162 0.01626,0.0271 0,0.0054 0.00543,0.0108 0.00543,0.0108 v 0 0 c 0.03253,0.0654 0.09757,0.1033 0.16264,0.1033 0.02169,0 0.04338,-0.0054 0.06507,-0.0163 0.03795,-0.0216 0.07047,-0.0543 0.08131,-0.0978 0.01085,-0.0436 0.01085,-0.0925 -0.01084,-0.136 v 0 0 c 0,-0.0054 -0.00542,-0.0054 -0.00542,-0.0108 -0.00543,-0.0109 -0.01084,-0.0217 -0.01627,-0.0271 -0.01626,-0.0327 -0.03795,-0.0598 -0.05964,-0.087 -0.01083,-0.0163 -0.02168,-0.0273 -0.03252,-0.0436 v -0.0054 c -0.05964,-0.0924 -0.11385,-0.1738 -0.14097,-0.2555 -0.01083,-0.0381 0,-0.0597 0.00543,-0.087 0,-0.0054 0.00543,-0.0054 0.00543,-0.0108 v 0 l -0.02712,-0.0652 c 0.28735,-0.1686 0.53131,-0.4077 0.71562,-0.7013 0.09757,-0.1522 0.1735,-0.3208 0.22773,-0.4893 l 0.06503,0.0109 c 0.0054,0 0.0054,-0.0055 0.01089,-0.0055 0.02167,-0.0108 0.03791,-0.027 0.07044,-0.027 h 0.01083 c 0.08674,0.0108 0.1789,0.0433 0.2819,0.0814 H 6.9256 c 0.01632,0.0054 0.03256,0.0162 0.04882,0.0218 0.03251,0.0163 0.05966,0.0271 0.0976,0.0379 0.01083,0 0.02166,0.0055 0.0325,0.0055 0.00541,0 0.01083,0 0.01632,0.0056 v 0 c 0.01624,0.0054 0.02708,0.0054 0.04334,0.0054 0.08133,0 0.15182,-0.0544 0.17349,-0.1251 0,-0.0652 -0.05966,-0.1523 -0.15725,-0.1793 z m -2.51012,-0.2665 -0.23854,0.1143 -0.23854,-0.1143 -0.05964,-0.2555 0.16264,-0.2066 h 0.26565 l 0.16264,0.2066 z m 1.41501,-0.5654 c 0.04336,0.1849 0.05421,0.3698 0.03795,0.5491 l -0.82948,-0.2392 c -0.0759,-0.0217 -0.11928,-0.0979 -0.10302,-0.1739 0.00543,-0.0219 0.01626,-0.0435 0.03253,-0.0598 l 0.656,-0.5925 c 0.09216,0.1522 0.16264,0.326 0.20602,0.5163 z M 5.61906,9.49652 4.90884,10.00204 C 4.84922,10.04014 4.76789,10.02934 4.71909,9.96954 4.70282,9.95334 4.69742,9.93144 4.69199,9.90984 L 4.6432,9.02365 C 5.01729,9.06717 5.35883,9.23562 5.61906,9.49652 Z M 4.04684,9.05092 C 4.10646,9.0399 4.16069,9.02907 4.22032,9.01824 l -0.04879,0.8697 c -0.00543,0.0762 -0.06507,0.1414 -0.14638,0.1414 -0.02169,0 -0.04878,-0.0054 -0.06505,-0.0162 L 3.23905,9.49652 C 3.46131,9.27372 3.73781,9.12151 4.04684,9.05092 Z m -1.06804,0.77192 0.64517,0.5761 c 0.05964,0.0489 0.06505,0.1414 0.01626,0.2011 -0.01626,0.0219 -0.03795,0.0381 -0.06506,0.0436 l -0.84034,0.2446 c -0.03252,-0.3696 0.04881,-0.7448 0.24397,-1.0654 z m -0.14637,1.4731 0.86202,-0.1468 c 0.07047,-0.0054 0.13552,0.0435 0.1518,0.1143 0.00543,0.0325 0.00543,0.0598 -0.00543,0.0869 v 0 l -0.3307,0.7991 c -0.30361,-0.1957 -0.54758,-0.4947 -0.67769,-0.8535 z m 1.97884,1.0819 c -0.12471,0.0271 -0.2494,0.0435 -0.37951,0.0435 -0.18976,0 -0.37408,-0.0327 -0.54756,-0.087 l 0.42828,-0.7775 c 0.04338,-0.0489 0.11385,-0.0706 0.17349,-0.0379 0.02712,0.0162 0.04881,0.0379 0.06505,0.0598 v 0 l 0.41746,0.7556 c -0.04878,0.0162 -0.103,0.0271 -0.15721,0.0435 z m 1.05718,-0.7556 c -0.13554,0.2174 -0.31446,0.3912 -0.52046,0.5272 l -0.34156,-0.8208 c -0.01626,-0.0652 0.01086,-0.136 0.07591,-0.1685 0.02168,-0.011 0.04878,-0.0164 0.0759,-0.0164 l 0.86743,0.1468 c -0.03253,0.1195 -0.08674,0.2284 -0.15722,0.3317 z" />
   </g>
  </g>
  <g
   id="Layer-1" />
 </g>
</svg>
