<?xml version="1.0" encoding="UTF-8" standalone="no"?>
<!DOCTYPE svg PUBLIC "-//W3C//DTD SVG 1.1//EN" "http://www.w3.org/Graphics/SVG/1.1/DTD/svg11.dtd">
<!-- Created with Vectornator (http://vectornator.io/) -->
<svg height="100%" stroke-miterlimit="10" style="fill-rule:nonzero;clip-rule:evenodd;stroke-linecap:round;stroke-linejoin:round;" version="1.1" viewBox="0 0 16 16" width="100%" xml:space="preserve" xmlns="http://www.w3.org/2000/svg" xmlns:vectornator="http://vectornator.io" xmlns:xlink="http://www.w3.org/1999/xlink">
<defs/>
<g id="layer0" vectornator:layerName="layer0">
<path d="M11.0206 5.64153L4.95129 5.65396L11.0206 5.64153Z" fill="none" opacity="1" stroke="#aeb1b3" stroke-linecap="butt" stroke-linejoin="miter" stroke-width="1.7"/>
<path d="M11.0214 8.3595L4.95052 8.37102L11.0214 8.3595Z" fill="none" opacity="1" stroke="#aeb1b3" stroke-linecap="butt" stroke-linejoin="miter" stroke-width="1.7"/>
<path d="M11.0206 11.0765L4.95129 11.0889L11.0206 11.0765Z" fill="none" opacity="1" stroke="#aeb1b3" stroke-linecap="butt" stroke-linejoin="miter" stroke-width="1.7"/>
<path d="M2.82231 2.7724L13.1544 2.7724L13.1544 13.9512L2.82231 13.9512L2.82231 2.7724Z" fill="none" opacity="1" stroke="#aeb1b3" stroke-linecap="butt" stroke-linejoin="miter" stroke-width="1.7"/>
<g opacity="1">
<path d="M4.405 9.15396L5.90975 9.15415L7.44194 9.15415L4.405 9.15396L4.405 9.15396Z" fill="#adadad" fill-rule="nonzero" opacity="1" stroke="#adadad" stroke-linecap="round" stroke-linejoin="round" stroke-width="0.60755"/>
<path d="M4.32933 11.0938L5.90906 11.094L7.5176 11.094L4.32933 11.0938L4.32933 11.0938Z" fill="#adadad" fill-rule="nonzero" opacity="1" stroke="#adadad" stroke-linecap="round" stroke-linejoin="round" stroke-width="0.60755"/>
<path d="M4.32933 13.0336L5.56286 13.0336L5.90906 13.0338L7.5176 13.0338L4.32933 13.0336L4.32933 13.0336Z" fill="#adadad" fill-rule="nonzero" opacity="1" stroke="#adadad" stroke-linecap="round" stroke-linejoin="round" stroke-width="0.60755"/>
<path d="M4.40817 14.9164C4.21301 14.9164 4.02868 14.8294 3.90397 14.6717L2.00647 12.307C1.88179 12.1494 1.83298 11.9482 1.88179 11.7525L2.55946 8.80061C2.60284 8.60489 2.73295 8.44726 2.91185 8.36023L5.65511 7.0447C5.74184 7.00119 5.83944 6.97953 5.93703 6.97953C6.03462 6.97953 6.13219 7.00119 6.21893 7.0447L8.96218 8.35482C9.1411 8.44185 9.2712 8.59947 9.3146 8.7952L9.99227 11.7471C10.0356 11.9426 9.99227 12.1438 9.8676 12.3016L7.97008 14.6663C7.84536 14.8185 7.66105 14.911 7.46587 14.911L4.40817 14.9164L4.40817 14.9164Z" fill="#326de6" fill-rule="nonzero" opacity="1" stroke="none"/>
<path d="M5.9316 7.11549C6.0075 7.11549 6.0834 7.13173 6.15388 7.16442L8.89711 8.47453C9.0381 8.54513 9.14651 8.67567 9.17901 8.82788L9.85677 11.7796C9.89468 11.9372 9.85677 12.1005 9.75369 12.2254L7.85619 14.5901C7.7586 14.7153 7.60684 14.7859 7.4496 14.7859L4.40817 14.7859C4.25096 14.7859 4.09915 14.7153 4.00156 14.5901L2.10406 12.2254C2.00647 12.1005 1.96852 11.9372 2.00105 11.7796L2.67874 8.82788C2.71669 8.67026 2.81969 8.53971 2.96064 8.47453L5.70389 7.159C5.77437 7.13173 5.8557 7.11549 5.9316 7.11549L5.9316 7.11549L5.9316 7.11549ZM5.9316 6.86L5.9316 6.86C5.81775 6.86 5.70389 6.88708 5.59547 6.93601L2.85221 8.25154C2.63536 8.35482 2.48356 8.54513 2.42934 8.77895L1.75167 11.7307C1.69746 11.9645 1.75167 12.2037 1.90345 12.394L3.80097 14.7588C3.94735 14.9435 4.16963 15.0468 4.40274 15.0468L7.4442 15.0468C7.67731 15.0468 7.89959 14.9435 8.04595 14.7588L9.9435 12.394C10.0953 12.2091 10.1495 11.9645 10.0953 11.7307L9.41759 8.77895C9.36336 8.54513 9.2116 8.35482 8.99469 8.25154L6.26231 6.93601C6.15931 6.88708 6.04545 6.86 5.9316 6.86L5.9316 6.86L5.9316 6.86Z" fill="#ffffff" fill-rule="nonzero" opacity="1" stroke="none"/>
<path d="M8.68026 11.546L8.68026 11.546L8.68026 11.546C8.67485 11.546 8.67485 11.546 8.68026 11.546L8.67485 11.546C8.66943 11.546 8.66402 11.546 8.66402 11.5406C8.65319 11.5406 8.64235 11.5351 8.63152 11.5351C8.59352 11.5295 8.56102 11.5241 8.5285 11.5241C8.51219 11.5241 8.49593 11.5241 8.47426 11.5187L8.46884 11.5187C8.355 11.5079 8.26284 11.497 8.1761 11.4698C8.13811 11.4535 8.12728 11.4317 8.11644 11.41C8.11644 11.4046 8.11101 11.4046 8.11101 11.3992L8.11101 11.3992L8.04052 11.3773C8.07308 11.1272 8.06225 10.8663 8.00259 10.6109C7.94293 10.3554 7.83993 10.1161 7.699 9.89875L7.75319 9.84982L7.75319 9.83899C7.75319 9.81172 7.7586 9.78464 7.78033 9.75737C7.84536 9.69761 7.92669 9.64868 8.02426 9.58892L8.02426 9.58892C8.04052 9.57809 8.05684 9.57267 8.07308 9.56165C8.10561 9.5454 8.13268 9.52916 8.16525 9.5073C8.17067 9.50189 8.18151 9.49647 8.19234 9.48564C8.19777 9.48023 8.20318 9.48023 8.20318 9.47481L8.20318 9.47481C8.2791 9.40944 8.29534 9.30075 8.24117 9.23016C8.21401 9.19206 8.16525 9.1704 8.11644 9.1704C8.07308 9.1704 8.03509 9.18664 7.99718 9.21372L7.99718 9.21372L7.99718 9.21372C7.99175 9.21933 7.99175 9.21933 7.98635 9.22474C7.97551 9.23016 7.97008 9.24099 7.95925 9.2464C7.93209 9.27367 7.91042 9.29533 7.88876 9.3226C7.87792 9.33343 7.86709 9.34968 7.85076 9.36051L7.85076 9.36051C7.77492 9.44213 7.70443 9.5073 7.63393 9.55624C7.61767 9.56707 7.60141 9.57267 7.58515 9.57267C7.57429 9.57267 7.56346 9.57267 7.55262 9.56707L7.54177 9.56707L7.54177 9.56707L7.47672 9.61058C7.40624 9.53457 7.33034 9.4692 7.25444 9.40403C6.92914 9.14854 6.53337 8.99092 6.12136 8.95282L6.11593 8.88223C6.1105 8.87681 6.1105 8.87681 6.10509 8.87139C6.08881 8.85496 6.06714 8.83871 6.06171 8.80061C6.05629 8.71358 6.06714 8.61591 6.07798 8.50702L6.07798 8.50161C6.07798 8.48536 6.0834 8.46351 6.08881 8.44726C6.09424 8.41477 6.09967 8.38209 6.10509 8.34399L6.10509 8.3113L6.10509 8.29505L6.10509 8.29505L6.10509 8.29505C6.10509 8.19719 6.02919 8.11577 5.93703 8.11577C5.89365 8.11577 5.85027 8.13743 5.81775 8.17012C5.78522 8.20261 5.76896 8.24612 5.76896 8.29505L5.76896 8.29505L5.76896 8.29505L5.76896 8.30589L5.76896 8.33857C5.76896 8.37667 5.77437 8.40916 5.78522 8.44185C5.79065 8.45809 5.79065 8.47453 5.79608 8.49619L5.79608 8.50161C5.80691 8.6103 5.82317 8.70816 5.81232 8.7952C5.80691 8.83329 5.78522 8.84954 5.76896 8.86579C5.76353 8.87139 5.76353 8.87139 5.75811 8.87681L5.75811 8.87681L5.7527 8.9474C5.65511 8.95823 5.55752 8.96926 5.45994 8.99092C5.04248 9.08336 4.67383 9.29533 4.38648 9.59975L4.33227 9.56165L4.32143 9.56165C4.31058 9.56165 4.29974 9.56707 4.28891 9.56707C4.27263 9.56707 4.25638 9.56165 4.2401 9.55082C4.16963 9.50189 4.09915 9.4313 4.02325 9.34968L4.02325 9.34968C4.01242 9.33885 4.00156 9.3226 3.9853 9.31158C3.96361 9.2845 3.94192 9.26265 3.91482 9.23557C3.9094 9.23016 3.89856 9.22474 3.88771 9.21372C3.8823 9.2083 3.87687 9.2083 3.87687 9.20289L3.87687 9.20289C3.84435 9.17581 3.80097 9.15937 3.75759 9.15937C3.70881 9.15937 3.66002 9.18123 3.6329 9.21933C3.57869 9.28992 3.59495 9.39861 3.67086 9.46379L3.67086 9.46379L3.67086 9.46379C3.67628 9.46379 3.67628 9.4692 3.68169 9.4692C3.69254 9.47481 3.69797 9.48564 3.70881 9.49106C3.74133 9.51272 3.76845 9.52916 3.80097 9.5454C3.81723 9.55082 3.83349 9.56165 3.84976 9.57267L3.84976 9.57267C3.94735 9.63244 4.02868 9.68137 4.09372 9.74113C4.12084 9.76821 4.12084 9.79548 4.12084 9.82274L4.12084 9.83358L4.12084 9.83358L4.17505 9.88251C4.1642 9.89875 4.15336 9.90958 4.14794 9.92602C3.87687 10.3554 3.77387 10.8609 3.84435 11.3611L3.77387 11.3827C3.77387 11.3883 3.76845 11.3883 3.76845 11.3938C3.75759 11.4154 3.74133 11.4373 3.70881 11.4535C3.62748 11.4806 3.52991 11.4916 3.41605 11.5024L3.41062 11.5024C3.39436 11.5024 3.37267 11.5024 3.35641 11.5079C3.32389 11.5079 3.29136 11.5133 3.25341 11.5187C3.24256 11.5187 3.23172 11.5241 3.22087 11.5241C3.21546 11.5241 3.21003 11.5241 3.20461 11.5295L3.20461 11.5295L3.20461 11.5295C3.10702 11.5514 3.0474 11.6438 3.06366 11.7307C3.07992 11.8069 3.15039 11.8558 3.23713 11.8558C3.25341 11.8558 3.26425 11.8558 3.28051 11.8504L3.28051 11.8504L3.28051 11.8504C3.28594 11.8504 3.29136 11.8504 3.29136 11.845C3.3022 11.845 3.31303 11.8394 3.32389 11.8394C3.36184 11.8285 3.38894 11.8177 3.42146 11.8015C3.43774 11.796 3.454 11.785 3.47027 11.7796L3.47569 11.7796C3.57869 11.7417 3.67086 11.709 3.75759 11.6982L3.76845 11.6982C3.80097 11.6982 3.82266 11.7144 3.83892 11.7253C3.84435 11.7253 3.84435 11.7307 3.84976 11.7307L3.84976 11.7307L3.92566 11.7198C4.05577 12.1221 4.30517 12.4809 4.63587 12.742C4.71178 12.8017 4.78768 12.8507 4.86899 12.8996L4.83646 12.9702C4.83646 12.9756 4.84189 12.9756 4.84189 12.981C4.85273 13.0029 4.86358 13.0299 4.85273 13.068C4.8202 13.1497 4.77142 13.2311 4.71178 13.3235L4.71178 13.3289C4.70094 13.3452 4.69009 13.3562 4.67923 13.3725C4.65756 13.3997 4.6413 13.4268 4.61961 13.4595C4.61419 13.4649 4.60876 13.4757 4.60335 13.4866C4.60335 13.492 4.59792 13.4974 4.59792 13.4974L4.59792 13.4974L4.59792 13.4974C4.55455 13.5898 4.58709 13.6931 4.6684 13.7312C4.69009 13.7421 4.71178 13.7475 4.73347 13.7475C4.79851 13.7475 4.86358 13.7041 4.8961 13.6442L4.8961 13.6442L4.8961 13.6442C4.8961 13.6388 4.90153 13.6334 4.90153 13.6334C4.90696 13.6225 4.91237 13.6117 4.91779 13.6063C4.93406 13.5682 4.93948 13.5409 4.95032 13.5084C4.95575 13.492 4.96115 13.4757 4.96658 13.4595L4.96658 13.4595C5.00453 13.3508 5.03165 13.2638 5.08043 13.1876C5.10212 13.1551 5.12922 13.1497 5.15091 13.1386C5.15634 13.1386 5.15634 13.1386 5.16174 13.1332L5.16174 13.1332L5.19969 13.0626C5.43826 13.1551 5.69849 13.204 5.95872 13.204C6.11593 13.204 6.27857 13.1876 6.43037 13.1497C6.52796 13.1278 6.62013 13.1007 6.71229 13.068L6.74481 13.1278C6.75024 13.1278 6.75024 13.1278 6.75567 13.1332C6.78277 13.1386 6.80446 13.1497 6.82614 13.1822C6.8695 13.2584 6.90205 13.3508 6.93998 13.4541L6.93998 13.4595C6.9454 13.4757 6.95083 13.492 6.95626 13.5084C6.96709 13.5409 6.97252 13.5736 6.98878 13.6063C6.99421 13.6171 6.99964 13.6225 7.00504 13.6334C7.00504 13.6388 7.01047 13.6442 7.01047 13.6442L7.01047 13.6442L7.01047 13.6442C7.043 13.7096 7.10804 13.7475 7.17311 13.7475C7.1948 13.7475 7.21649 13.7421 7.23818 13.7312C7.27613 13.7096 7.30865 13.6769 7.31949 13.6334C7.33034 13.5898 7.33034 13.5409 7.30865 13.4974L7.30865 13.4974L7.30865 13.4974C7.30865 13.492 7.30323 13.492 7.30323 13.4866C7.2978 13.4757 7.29239 13.4649 7.28696 13.4595C7.2707 13.4268 7.24901 13.3997 7.22732 13.3725C7.21649 13.3562 7.20564 13.3452 7.1948 13.3289L7.1948 13.3235C7.13516 13.2311 7.08095 13.1497 7.05383 13.068C7.043 13.0299 7.05383 13.0083 7.05926 12.981C7.05926 12.9756 7.06469 12.9756 7.06469 12.9702L7.06469 12.9702L7.03757 12.905C7.32492 12.7364 7.56888 12.4973 7.75319 12.2037C7.85076 12.0515 7.92669 11.8829 7.98092 11.7144L8.04595 11.7253C8.05135 11.7253 8.05135 11.7198 8.05684 11.7198C8.07851 11.709 8.09475 11.6928 8.12728 11.6928L8.13811 11.6928C8.22485 11.7036 8.31701 11.7361 8.42001 11.7742L8.42544 11.7742C8.44176 11.7796 8.458 11.7904 8.47426 11.796C8.50677 11.8123 8.53392 11.8231 8.57186 11.8339C8.58269 11.8339 8.59352 11.8394 8.60436 11.8394C8.60977 11.8394 8.61519 11.8394 8.62068 11.845L8.62068 11.845C8.63692 11.8504 8.64776 11.8504 8.66402 11.8504C8.74535 11.8504 8.81584 11.796 8.83751 11.7253C8.83751 11.6601 8.77785 11.573 8.68026 11.546L8.68026 11.546L8.68026 11.546ZM6.17014 11.2795L5.9316 11.3938L5.69306 11.2795L5.63342 11.024L5.79606 10.8174L6.06171 10.8174L6.22435 11.024L6.17014 11.2795L6.17014 11.2795ZM7.58515 10.7141C7.62851 10.899 7.63936 11.0839 7.6231 11.2632L6.79362 11.024C6.71772 11.0023 6.67434 10.9261 6.6906 10.8501C6.69603 10.8282 6.70686 10.8066 6.72313 10.7903L7.37913 10.1978C7.47129 10.35 7.54177 10.5238 7.58515 10.7141L7.58515 10.7141L7.58515 10.7141ZM7.1189 9.87148L6.40868 10.377C6.34906 10.4151 6.26773 10.4043 6.21893 10.3445C6.20266 10.3283 6.19726 10.3064 6.19183 10.2848L6.14304 9.39861C6.51713 9.44213 6.85867 9.61058 7.1189 9.87148L7.1189 9.87148L7.1189 9.87148ZM5.54668 9.42588C5.6063 9.41486 5.66053 9.40403 5.72016 9.3932L5.67137 10.2629C5.66594 10.3391 5.6063 10.4043 5.52499 10.4043C5.5033 10.4043 5.47621 10.3989 5.45994 10.3881L4.73889 9.87148C4.96115 9.64868 5.23765 9.49647 5.54668 9.42588L5.54668 9.42588L5.54668 9.42588ZM4.47864 10.1978L5.12381 10.7739C5.18345 10.8228 5.18886 10.9153 5.14007 10.975C5.12381 10.9969 5.10212 11.0131 5.07501 11.0186L4.23467 11.2632C4.20215 10.8936 4.28348 10.5184 4.47864 10.1978L4.47864 10.1978L4.47864 10.1978ZM4.33227 11.6709L5.19429 11.5241C5.26476 11.5187 5.32981 11.5676 5.34609 11.6384C5.35152 11.6709 5.35152 11.6982 5.34066 11.7253L5.34066 11.7253L5.00996 12.5244C4.70635 12.3287 4.46238 12.0297 4.33227 11.6709L4.33227 11.6709L4.33227 11.6709ZM6.31111 12.7528C6.1864 12.7799 6.06171 12.7963 5.9316 12.7963C5.74184 12.7963 5.55752 12.7636 5.38404 12.7093L5.81232 11.9318C5.8557 11.8829 5.92617 11.8612 5.98581 11.8939C6.01293 11.9101 6.03462 11.9318 6.05086 11.9537L6.05086 11.9537L6.46832 12.7093C6.41954 12.7255 6.36532 12.7364 6.31111 12.7528L6.31111 12.7528L6.31111 12.7528ZM7.36829 11.9972C7.23275 12.2146 7.05383 12.3884 6.84783 12.5244L6.50627 11.7036C6.49001 11.6384 6.51713 11.5676 6.58218 11.5351C6.60386 11.5241 6.63096 11.5187 6.65808 11.5187L7.52551 11.6655C7.49298 11.785 7.43877 11.8939 7.36829 11.9972L7.36829 11.9972L7.36829 11.9972Z" fill="#ffffff" fill-rule="nonzero" opacity="1" stroke="none"/>
</g>
</g>
<g id="Layer-1" vectornator:layerName="Layer 1"/>
</svg>
