<?xml version='1.0' encoding='utf-8'?>
<!-- Generator: imaengine 6.0   -->
<svg xmlns:xlink="http://www.w3.org/1999/xlink" xmlns="http://www.w3.org/2000/svg" viewBox="0,0,14,17" style="enable-background:new 0 0 14 17;" version="1.1">
<defs/>
<g id="layer0">
<path d="M21.7735,20.7338L32.8493,20.7338C33.4973,20.7338 34.0227,21.2591 34.0227,21.9072L34.0227,35.8574C34.0227,36.5055 33.4973,37.0308 32.8493,37.0308L21.7735,37.0308C21.1254,37.0308 20.6001,36.5055 20.6001,35.8574L20.6001,21.9072C20.6001,21.2591 21.1254,20.7338 21.7735,20.7338L21.7735,20.7338L21.7735,20.7338Z" stroke="#6A6A6A" stroke-width="0.1" stroke-linecap="square" fill="#6A6A6A"/>
<path d="M21.7001,20.5678L32.7758,20.5678C33.4239,20.5678 33.9493,21.0932 33.9493,21.7413L33.9493,35.6914C33.9493,36.3395 33.4239,36.8649 32.7758,36.8649L21.7001,36.8649C21.052,36.8649 20.5267,36.3395 20.5267,35.6914L20.5267,21.7413C20.5267,21.0932 21.052,20.5678 21.7001,20.5678L21.7001,20.5678L21.7001,20.5678Z" stroke="#6A6A6A" stroke-width="0.1" stroke-linecap="square" fill="#6A6A6A"/>
<path d="M22.7021,23.7732C25.7508,23.7812 32.0048,23.7524 32.0048,23.7524L22.7021,23.7732L22.7021,23.7732Z" stroke="#6A6A6A" stroke-width="1.1" stroke-linecap="round" fill="#6A6A6A" stroke-linejoin="round"/>
<path d="M22.7021,23.7732C25.7508,23.7812 32.0048,23.7524 32.0048,23.7524L22.7021,23.7732L22.7021,23.7732Z" stroke="#6A6A6A" stroke-width="1.1" stroke-linecap="round" fill="#6A6A6A" stroke-linejoin="round"/>
<path d="M22.7021,23.7732C25.7508,23.7812 32.0048,23.7524 32.0048,23.7524L22.7021,23.7732L22.7021,23.7732Z" stroke="#6A6A6A" stroke-width="1.1" stroke-linecap="round" fill="#6A6A6A" stroke-linejoin="round"/>
<path d="M10.0599,5.49411L3.99057,5.50654L10.0599,5.49411Z" stroke="#B4B4B4" stroke-width="1.7" stroke-linecap="round" fill="none" stroke-linejoin="round"/>
<path d="M3.44598,1.63016L10.5562,1.63016C11.657,1.63016 12.5492,2.56575 12.5492,3.71986L12.5492,13.8437C12.5492,14.9978 11.657,15.9334 10.5562,15.9334L3.44598,15.9334C2.34528,15.9334 1.453,14.9978 1.453,13.8437L1.453,3.71986C1.453,2.56575 2.34528,1.63016 3.44598,1.63016L3.44598,1.63016Z" stroke="#B4B4B4" stroke-width="1.7" stroke-linecap="round" fill="none" stroke-linejoin="round"/>
<path d="M10.0607,8.6503L3.98983,8.66182L10.0607,8.6503Z" stroke="#B4B4B4" stroke-width="1.7" stroke-linecap="round" fill="none" stroke-linejoin="round"/>
<path d="M10.0599,11.8056L3.99057,11.818L10.0599,11.8056Z" stroke="#B4B4B4" stroke-width="1.7" stroke-linecap="round" fill="none" stroke-linejoin="round"/>
<g transform="matrix(2.02309 0 0 2.02309 -2.88499 -15.5021)">
<path d="M2.78413,13.0215L3.54382,13.0216L4.31736,13.0216L2.78413,13.0215L2.78413,13.0215Z" stroke="#ADADAD" stroke-width="0.300308" stroke-linecap="round" fill="#ADADAD" stroke-linejoin="round"/>
<path d="M2.74593,14.0245L3.54347,14.0246L4.35556,14.0246L2.74593,14.0245L2.74593,14.0245Z" stroke="#ADADAD" stroke-width="0.300308" stroke-linecap="round" fill="#ADADAD" stroke-linejoin="round"/>
<path d="M2.74593,15.0275L3.36869,15.0275L3.54347,15.0276L4.35556,15.0276L2.74593,15.0275L2.74593,15.0275Z" stroke="#ADADAD" stroke-width="0.300308" stroke-linecap="round" fill="#ADADAD" stroke-linejoin="round"/>
<path d="M2.78573,16.001C2.6872,16.001 2.59414,15.956 2.53118,15.8745L1.57321,14.6518C1.51026,14.5703 1.48562,14.4663 1.51026,14.3651L1.85239,12.8388C1.87429,12.7376 1.93998,12.6561 2.0303,12.6111L3.41526,11.9309C3.45905,11.9084 3.50832,11.8972 3.55759,11.8972C3.60686,11.8972 3.65612,11.9084 3.69991,11.9309L5.08487,12.6083C5.1752,12.6533 5.24088,12.7348 5.26279,12.836L5.60492,14.3623C5.6268,14.4634 5.60492,14.5674 5.54198,14.649L4.584,15.8717C4.52103,15.9504 4.42798,15.9982 4.32944,15.9982L2.78573,16.001L2.78573,16.001Z" fill="#326DE6"/>
<path d="M3.55485,11.9675C3.59317,11.9675 3.63149,11.9759 3.66707,11.9928L5.05202,12.6702C5.1232,12.7067 5.17793,12.7742 5.19434,12.8529L5.53651,14.3791C5.55565,14.4606 5.53651,14.545 5.48447,14.6096L4.5265,15.8323C4.47723,15.897 4.40061,15.9335 4.32123,15.9335L2.78573,15.9335C2.70636,15.9335 2.62972,15.897 2.58045,15.8323L1.62248,14.6096C1.57321,14.545 1.55405,14.4606 1.57047,14.3791L1.91261,12.8529C1.93177,12.7714 1.98377,12.7039 2.05493,12.6702L3.43989,11.99C3.47547,11.9759 3.51653,11.9675 3.55485,11.9675L3.55485,11.9675L3.55485,11.9675ZM3.55485,11.8354L3.55485,11.8354C3.49737,11.8354 3.43989,11.8494 3.38515,11.8747L2.00019,12.5549C1.89071,12.6083 1.81407,12.7067 1.7867,12.8276L1.44457,14.3538C1.4172,14.4747 1.44457,14.5984 1.5212,14.6968L2.47918,15.9195C2.55308,16.015 2.6653,16.0684 2.78299,16.0684L4.3185,16.0684C4.43619,16.0684 4.54841,16.015 4.6223,15.9195L5.5803,14.6968C5.65692,14.6012 5.68431,14.4747 5.65692,14.3538L5.31479,12.8276C5.28741,12.7067 5.21079,12.6083 5.10128,12.5549L3.72181,11.8747C3.66981,11.8494 3.61233,11.8354 3.55485,11.8354L3.55485,11.8354L3.55485,11.8354Z" fill="#FFFFFF"/>
<path d="M4.94254,14.2583L4.94254,14.2583L4.94254,14.2583C4.93981,14.2583 4.93981,14.2583 4.94254,14.2583L4.93981,14.2583C4.93707,14.2583 4.93434,14.2583 4.93434,14.2555C4.92887,14.2555 4.9234,14.2527 4.91793,14.2527C4.89875,14.2498 4.88234,14.247 4.86592,14.247C4.85769,14.247 4.84948,14.247 4.83854,14.2442L4.8358,14.2442C4.77833,14.2386 4.7318,14.233 4.68801,14.2189C4.66883,14.2105 4.66336,14.1992 4.65789,14.188C4.65789,14.1852 4.65515,14.1852 4.65515,14.1824L4.65515,14.1824L4.61956,14.1711C4.636,14.0418 4.63053,13.9069 4.60041,13.7748C4.57029,13.6427 4.51829,13.519 4.44714,13.4066L4.4745,13.3813L4.4745,13.3757C4.4745,13.3616 4.47723,13.3476 4.4882,13.3335C4.52103,13.3026 4.56209,13.2773 4.61135,13.2464L4.61135,13.2464C4.61956,13.2408 4.6278,13.238 4.636,13.2323C4.65242,13.2239 4.66609,13.2155 4.68253,13.2042C4.68527,13.2014 4.69074,13.1986 4.69621,13.193C4.69895,13.1902 4.70168,13.1902 4.70168,13.1874L4.70168,13.1874C4.74001,13.1536 4.74821,13.0974 4.72086,13.0609C4.70715,13.0412 4.68253,13.03 4.65789,13.03C4.636,13.03 4.61682,13.0384 4.59768,13.0524L4.59768,13.0524L4.59768,13.0524C4.59494,13.0553 4.59494,13.0553 4.59221,13.0581C4.58674,13.0609 4.584,13.0665 4.57853,13.0693C4.56482,13.0834 4.55388,13.0946 4.54294,13.1087C4.53747,13.1143 4.532,13.1227 4.52376,13.1283L4.52376,13.1283C4.48547,13.1705 4.44988,13.2042 4.41429,13.2295C4.40608,13.2351 4.39787,13.238 4.38966,13.238C4.38418,13.238 4.37871,13.238 4.37324,13.2351L4.36776,13.2351L4.36776,13.2351L4.33492,13.2576C4.29934,13.2183 4.26102,13.1845 4.2227,13.1508C4.05847,13.0187 3.85866,12.9372 3.65065,12.9175L3.64791,12.881C3.64517,12.8782 3.64517,12.8782 3.64244,12.8754C3.63422,12.8669 3.62328,12.8585 3.62054,12.8388C3.6178,12.7938 3.62328,12.7433 3.62875,12.687L3.62875,12.6842C3.62875,12.6758 3.63149,12.6645 3.63422,12.6561C3.63696,12.6393 3.6397,12.6224 3.64244,12.6027L3.64244,12.5858L3.64244,12.5774L3.64244,12.5774L3.64244,12.5774C3.64244,12.5268 3.60412,12.4847 3.55759,12.4847C3.53569,12.4847 3.51379,12.4959 3.49737,12.5128C3.48095,12.5296 3.47274,12.5521 3.47274,12.5774L3.47274,12.5774L3.47274,12.5774L3.47274,12.583L3.47274,12.5999C3.47274,12.6196 3.47547,12.6364 3.48095,12.6533C3.48369,12.6617 3.48369,12.6702 3.48643,12.6814L3.48643,12.6842C3.4919,12.7404 3.50011,12.791 3.49463,12.836C3.4919,12.8557 3.48095,12.8641 3.47274,12.8725C3.47,12.8754 3.47,12.8754 3.46726,12.8782L3.46726,12.8782L3.46453,12.9147C3.41526,12.9203 3.36599,12.926 3.31673,12.9372C3.10597,12.985 2.91985,13.0946 2.77478,13.252L2.74741,13.2323L2.74194,13.2323C2.73646,13.2323 2.73099,13.2351 2.72552,13.2351C2.7173,13.2351 2.7091,13.2323 2.70088,13.2267C2.6653,13.2014 2.62972,13.1649 2.5914,13.1227L2.5914,13.1227C2.58593,13.1171 2.58045,13.1087 2.57224,13.103C2.56129,13.089 2.55034,13.0777 2.53666,13.0637C2.53392,13.0609 2.52845,13.0581 2.52297,13.0524C2.52024,13.0496 2.5175,13.0496 2.5175,13.0468L2.5175,13.0468C2.50108,13.0328 2.47918,13.0243 2.45728,13.0243C2.43265,13.0243 2.40802,13.0356 2.39433,13.0553C2.36696,13.0918 2.37517,13.148 2.41349,13.1817L2.41349,13.1817L2.41349,13.1817C2.41623,13.1817 2.41623,13.1845 2.41896,13.1845C2.42444,13.1874 2.42718,13.193 2.43265,13.1958C2.44907,13.207 2.46276,13.2155 2.47918,13.2239C2.48739,13.2267 2.4956,13.2323 2.50381,13.238L2.50381,13.238C2.55308,13.2689 2.59414,13.2942 2.62698,13.3251C2.64067,13.3391 2.64067,13.3532 2.64067,13.3673L2.64067,13.3729L2.64067,13.3729L2.66804,13.3982C2.66256,13.4066 2.65709,13.4122 2.65435,13.4207C2.5175,13.6427 2.4655,13.9041 2.50108,14.1627L2.4655,14.1739C2.4655,14.1768 2.46276,14.1768 2.46276,14.1796C2.45728,14.1908 2.44907,14.2021 2.43265,14.2105C2.39159,14.2245 2.34233,14.2302 2.28485,14.2358L2.28211,14.2358C2.2739,14.2358 2.26295,14.2358 2.25474,14.2386C2.23832,14.2386 2.2219,14.2414 2.20274,14.2442C2.19726,14.2442 2.19179,14.247 2.18631,14.247C2.18358,14.247 2.18084,14.247 2.1781,14.2498L2.1781,14.2498L2.1781,14.2498C2.12883,14.2611 2.09873,14.3089 2.10694,14.3538C2.11515,14.3932 2.15073,14.4185 2.19452,14.4185C2.20274,14.4185 2.20821,14.4185 2.21642,14.4157L2.21642,14.4157L2.21642,14.4157C2.21916,14.4157 2.2219,14.4157 2.2219,14.4129C2.22737,14.4129 2.23284,14.41 2.23832,14.41C2.25748,14.4044 2.27116,14.3988 2.28758,14.3904C2.2958,14.3876 2.30401,14.3819 2.31222,14.3791L2.31496,14.3791C2.36696,14.3595 2.41349,14.3426 2.45728,14.337L2.46276,14.337C2.47918,14.337 2.49013,14.3454 2.49834,14.351C2.50108,14.351 2.50108,14.3538 2.50381,14.3538L2.50381,14.3538L2.54213,14.3482C2.60782,14.5562 2.73373,14.7417 2.90069,14.8767C2.93901,14.9076 2.97733,14.9329 3.01838,14.9582L3.00196,14.9947C3.00196,14.9975 3.0047,14.9975 3.0047,15.0003C3.01017,15.0116 3.01565,15.0256 3.01017,15.0453C2.99375,15.0875 2.96912,15.1296 2.93901,15.1774L2.93901,15.1802C2.93354,15.1886 2.92806,15.1943 2.92258,15.2027C2.91164,15.2168 2.90343,15.2308 2.89248,15.2477C2.88974,15.2505 2.887,15.2561 2.88427,15.2617C2.88427,15.2645 2.88153,15.2673 2.88153,15.2673L2.88153,15.2673L2.88153,15.2673C2.85963,15.3151 2.87606,15.3685 2.91711,15.3882C2.92806,15.3938 2.93901,15.3966 2.94996,15.3966C2.9828,15.3966 3.01565,15.3742 3.03207,15.3432L3.03207,15.3432L3.03207,15.3432C3.03207,15.3404 3.03481,15.3376 3.03481,15.3376C3.03755,15.332 3.04028,15.3264 3.04302,15.3236C3.05123,15.3039 3.05397,15.2898 3.05944,15.273C3.06218,15.2645 3.06491,15.2561 3.06765,15.2477L3.06765,15.2477C3.08681,15.1915 3.1005,15.1465 3.12513,15.1071C3.13608,15.0903 3.14976,15.0875 3.16071,15.0818C3.16345,15.0818 3.16345,15.0818 3.16618,15.079L3.16618,15.079L3.18534,15.0425C3.30578,15.0903 3.43716,15.1156 3.56854,15.1156C3.64791,15.1156 3.73002,15.1071 3.80666,15.0875C3.85593,15.0762 3.90246,15.0622 3.94899,15.0453L3.96541,15.0762C3.96815,15.0762 3.96815,15.0762 3.97089,15.079C3.98457,15.0818 3.99552,15.0875 4.00647,15.1043C4.02836,15.1437 4.04479,15.1915 4.06394,15.2449L4.06394,15.2477C4.06668,15.2561 4.06942,15.2645 4.07216,15.273C4.07763,15.2898 4.08037,15.3067 4.08858,15.3236C4.09132,15.3292 4.09406,15.332 4.09679,15.3376C4.09679,15.3404 4.09953,15.3432 4.09953,15.3432L4.09953,15.3432L4.09953,15.3432C4.11595,15.377 4.14879,15.3966 4.18164,15.3966C4.19259,15.3966 4.20354,15.3938 4.21449,15.3882C4.23365,15.377 4.25007,15.3601 4.25554,15.3376C4.26102,15.3151 4.26102,15.2898 4.25007,15.2673L4.25007,15.2673L4.25007,15.2673C4.25007,15.2645 4.24733,15.2645 4.24733,15.2617C4.24459,15.2561 4.24186,15.2505 4.23912,15.2477C4.23091,15.2308 4.21996,15.2168 4.20901,15.2027C4.20354,15.1943 4.19806,15.1886 4.19259,15.1802L4.19259,15.1774C4.16248,15.1296 4.13511,15.0875 4.12142,15.0453C4.11595,15.0256 4.12142,15.0144 4.12416,15.0003C4.12416,14.9975 4.1269,14.9975 4.1269,14.9947L4.1269,14.9947L4.11321,14.961C4.25828,14.8738 4.38145,14.7502 4.4745,14.5984C4.52376,14.5197 4.56209,14.4325 4.58947,14.3454L4.6223,14.351C4.62503,14.351 4.62503,14.3482 4.6278,14.3482C4.63874,14.3426 4.64694,14.3342 4.66336,14.3342L4.66883,14.3342C4.71262,14.3398 4.75915,14.3566 4.81115,14.3763L4.81389,14.3763C4.82213,14.3791 4.83033,14.3847 4.83854,14.3876C4.85495,14.396 4.86866,14.4016 4.88781,14.4072C4.89328,14.4072 4.89875,14.41 4.90422,14.41C4.90695,14.41 4.90969,14.41 4.91246,14.4129L4.91246,14.4129C4.92066,14.4157 4.92613,14.4157 4.93434,14.4157C4.9754,14.4157 5.01099,14.3876 5.02193,14.351C5.02193,14.3173 4.99181,14.2723 4.94254,14.2583L4.94254,14.2583L4.94254,14.2583ZM3.67528,14.1205L3.55485,14.1796L3.43442,14.1205L3.40431,13.9884L3.48642,13.8816L3.62054,13.8816L3.70265,13.9884L3.67528,14.1205L3.67528,14.1205ZM4.38966,13.8282C4.41155,13.9238 4.41703,14.0194 4.40882,14.1121L3.99005,13.9884C3.95173,13.9772 3.92983,13.9378 3.93804,13.8985C3.94078,13.8872 3.94625,13.876 3.95446,13.8676L4.28565,13.5612C4.33218,13.6399 4.36776,13.7298 4.38966,13.8282L4.38966,13.8282L4.38966,13.8282ZM4.15427,13.3925L3.79571,13.6539C3.76561,13.6736 3.72455,13.668 3.69991,13.6371C3.6917,13.6287 3.68897,13.6174 3.68623,13.6062L3.6616,13.148C3.85046,13.1705 4.02289,13.2576 4.15427,13.3925L4.15427,13.3925L4.15427,13.3925ZM3.36052,13.1621C3.39062,13.1564 3.418,13.1508 3.4481,13.1452L3.42347,13.5949C3.42073,13.6343 3.39062,13.668 3.34957,13.668C3.33862,13.668 3.32494,13.6652 3.31673,13.6596L2.9527,13.3925C3.06491,13.2773 3.2045,13.1986 3.36052,13.1621L3.36052,13.1621L3.36052,13.1621ZM2.82131,13.5612L3.14703,13.8591C3.17714,13.8844 3.17987,13.9322 3.15524,13.9631C3.14703,13.9744 3.13608,13.9828 3.12239,13.9856L2.69814,14.1121C2.68172,13.921 2.72278,13.727 2.82131,13.5612L2.82131,13.5612L2.82131,13.5612ZM2.74741,14.3229L3.18261,14.247C3.21819,14.2442 3.25103,14.2695 3.25925,14.3061C3.26199,14.3229 3.26199,14.337 3.25651,14.351L3.25651,14.351L3.08955,14.7642C2.93627,14.663 2.8131,14.5084 2.74741,14.3229L2.74741,14.3229L2.74741,14.3229ZM3.74645,14.8823C3.68349,14.8963 3.62054,14.9048 3.55485,14.9048C3.45905,14.9048 3.36599,14.8879 3.27841,14.8598L3.49463,14.4578C3.51653,14.4325 3.55211,14.4213 3.58222,14.4382C3.59591,14.4466 3.60686,14.4578 3.61506,14.4691L3.61506,14.4691L3.82582,14.8598C3.80119,14.8682 3.77382,14.8738 3.74645,14.8823L3.74645,14.8823L3.74645,14.8823ZM4.28018,14.4916C4.21175,14.604 4.12142,14.6939 4.01742,14.7642L3.84498,14.3398C3.83677,14.3061 3.85046,14.2695 3.8833,14.2527C3.89425,14.247 3.90793,14.2442 3.92162,14.2442L4.35955,14.3201C4.34313,14.3819 4.31576,14.4382 4.28018,14.4916L4.28018,14.4916L4.28018,14.4916Z" fill="#FFFFFF"/>
</g>
</g>
</svg>
