<?xml version="1.0" encoding="UTF-8" standalone="no"?>
<!-- Created with Vectornator (http://vectornator.io/) -->

<svg
   height="100%"
   stroke-miterlimit="10"
   style="fill-rule:nonzero;clip-rule:evenodd;stroke-linecap:round;stroke-linejoin:round;zoom: 1;"
   version="1.1"
   viewBox="0 0 13 13"
   width="100%"
   xml:space="preserve"
   id="svg10"
   sodipodi:docname="consoles-toolwindow.svg"
   inkscape:version="1.3.2 (091e20e, 2023-11-25)"
   xmlns:inkscape="http://www.inkscape.org/namespaces/inkscape"
   xmlns:sodipodi="http://sodipodi.sourceforge.net/DTD/sodipodi-0.dtd"
   xmlns="http://www.w3.org/2000/svg"
   xmlns:svg="http://www.w3.org/2000/svg"
   xmlns:vectornator="http://vectornator.io"><sodipodi:namedview
     id="namedview10"
     pagecolor="#ffffff"
     bordercolor="#000000"
     borderopacity="0.25"
     inkscape:showpageshadow="2"
     inkscape:pageopacity="0.0"
     inkscape:pagecheckerboard="0"
     inkscape:deskcolor="#d1d1d1"
     inkscape:zoom="67.242673"
     inkscape:cx="4.5729889"
     inkscape:cy="11.837721"
     inkscape:window-width="1696"
     inkscape:window-height="1081"
     inkscape:window-x="0"
     inkscape:window-y="44"
     inkscape:window-maximized="0"
     inkscape:current-layer="svg10" /><defs
     id="defs1" /><g
     id="layer0"
     vectornator:layerName="layer0"
     transform="matrix(1.0546263,0,0,0.98953015,-1.9272456,-1.7840488)"><path
       d="M 11.0206,5.64153 4.95129,5.65396 Z"
       fill="none"
       opacity="1"
       stroke="#6e6e6e"
       stroke-linecap="butt"
       stroke-linejoin="miter"
       stroke-width="1.7"
       id="path1" /><path
       d="M 11.0214,8.3595 4.95052,8.37102 Z"
       fill="none"
       opacity="1"
       stroke="#6e6e6e"
       stroke-linecap="butt"
       stroke-linejoin="miter"
       stroke-width="1.7"
       id="path2" /><path
       d="M 11.0206,11.0765 4.95129,11.0889 Z"
       fill="none"
       opacity="1"
       stroke="#6e6e6e"
       stroke-linecap="butt"
       stroke-linejoin="miter"
       stroke-width="1.7"
       id="path3" /><path
       d="M 2.82231,2.7724 H 13.1544 V 13.9512 H 2.82231 Z"
       fill="none"
       opacity="1"
       stroke="#6e6e6e"
       stroke-linecap="butt"
       stroke-linejoin="miter"
       stroke-width="1.7"
       id="path4" /><g
       opacity="1"
       id="g10"><path
         d="m 4.405,8.93943 1.50475,2e-4 h 1.53219 z"
         fill="#adadad"
         fill-rule="nonzero"
         opacity="1"
         stroke="#adadad"
         stroke-linecap="round"
         stroke-linejoin="round"
         stroke-width="0.60755"
         id="path5" /><path
         d="m 4.32933,10.9499 1.57973,2e-4 H 7.5176 Z"
         fill="#adadad"
         fill-rule="nonzero"
         opacity="1"
         stroke="#adadad"
         stroke-linecap="round"
         stroke-linejoin="round"
         stroke-width="0.60755"
         id="path6" /><path
         d="m 4.32933,12.9603 h 1.23353 l 0.3462,2e-4 H 7.5176 Z"
         fill="#adadad"
         fill-rule="nonzero"
         opacity="1"
         stroke="#adadad"
         stroke-linecap="round"
         stroke-linejoin="round"
         stroke-width="0.60755"
         id="path7" /><path
         d="m 4.40817,14.9117 c -0.19516,0 -0.37949,-0.0902 -0.5042,-0.2536 L 2.00647,12.2073 C 1.88179,12.0439 1.83298,11.8354 1.88179,11.6326 L 2.55946,8.57322 C 2.60284,8.37037 2.73295,8.20701 2.91185,8.11681 L 5.65511,6.75339 c 0.08673,-0.0451 0.18433,-0.06755 0.28192,-0.06755 0.09759,0 0.19516,0.02245 0.2819,0.06755 l 2.74325,1.3578 C 9.1411,8.20139 9.2712,8.36476 9.3146,8.56761 L 9.99227,11.627 c 0.04333,0.2026 0,0.4111 -0.12467,0.5747 L 7.97008,14.6525 C 7.84536,14.8102 7.66105,14.906 7.46587,14.906 Z"
         fill="#326de6"
         fill-rule="nonzero"
         opacity="1"
         stroke="none"
         id="path8" /><path
         d="m 5.9316,6.82675 c 0.0759,0 0.1518,0.01684 0.22228,0.05071 l 2.74323,1.35781 c 0.14099,0.07316 0.2494,0.20846 0.2819,0.36621 l 0.67776,3.05922 c 0.03791,0.1633 0,0.3325 -0.10308,0.462 l -1.8975,2.4508 C 7.7586,14.7032 7.60684,14.7764 7.4496,14.7764 H 4.40817 c -0.15721,0 -0.30902,-0.0732 -0.40661,-0.2029 L 2.10406,12.1227 C 2.00647,11.9932 1.96852,11.824 2.00105,11.6607 L 2.67874,8.60148 C 2.71669,8.43812 2.81969,8.30282 2.96064,8.23527 L 5.70389,6.87185 C 5.77437,6.84359 5.8557,6.82675 5.9316,6.82675 Z m 0,-0.26479 v 0 c -0.11385,0 -0.22771,0.02806 -0.33613,0.07878 L 2.85221,8.00416 C 2.63536,8.11119 2.48356,8.30843 2.42934,8.55077 L 1.75167,11.6099 c -0.05421,0.2424 0,0.4903 0.15178,0.6876 l 1.89752,2.4508 c 0.14638,0.1914 0.36866,0.2985 0.60177,0.2985 H 7.4442 c 0.23311,0 0.45539,-0.1071 0.60175,-0.2985 L 9.9435,12.2975 c 0.1518,-0.1917 0.206,-0.4452 0.1518,-0.6876 L 9.41759,8.55077 C 9.36336,8.30843 9.2116,8.11119 8.99469,8.00416 L 6.26231,6.64074 C 6.15931,6.59002 6.04545,6.56196 5.9316,6.56196 Z"
         fill="#ffffff"
         fill-rule="nonzero"
         opacity="1"
         stroke="none"
         id="path9" /><path
         d="m 8.68026,11.4185 v 0 0 c -0.00541,0 -0.00541,0 0,0 H 8.67485 c -0.00542,0 -0.01083,0 -0.01083,-0.0056 -0.01083,0 -0.02167,-0.0056 -0.0325,-0.0056 -0.038,-0.0058 -0.0705,-0.0114 -0.10302,-0.0114 -0.01631,0 -0.03257,0 -0.05424,-0.0056 H 8.46884 C 8.355,11.379 8.26284,11.3678 8.1761,11.3395 8.13811,11.3227 8.12728,11.3001 8.11644,11.2776 c 0,-0.0056 -0.00543,-0.0056 -0.00543,-0.0112 v 0 L 8.04052,11.2437 C 8.07308,10.9846 8.06225,10.7142 8.00259,10.4494 7.94293,10.1846 7.83993,9.93664 7.699,9.71134 L 7.75319,9.66063 V 9.6494 C 7.75319,9.62114 7.7586,9.59308 7.78033,9.56481 7.84536,9.50288 7.92669,9.45216 8.02426,9.39023 v 0 C 8.04052,9.379 8.05684,9.37339 8.07308,9.36196 8.10561,9.34513 8.13268,9.32829 8.16525,9.30564 8.17067,9.30003 8.18151,9.29441 8.19234,9.28319 8.19777,9.27758 8.20318,9.27758 8.20318,9.27196 v 0 C 8.2791,9.20421 8.29534,9.09157 8.24117,9.0184 8.21401,8.97892 8.16525,8.95647 8.11644,8.95647 c -0.04336,0 -0.08135,0.01683 -0.11926,0.0449 v 0 0 C 7.99175,9.00718 7.99175,9.00718 7.98635,9.01279 7.97551,9.0184 7.97008,9.02963 7.95925,9.03524 7.93209,9.0635 7.91042,9.08595 7.88876,9.11422 7.87792,9.12544 7.86709,9.14228 7.85076,9.1535 v 0 C 7.77492,9.23809 7.70443,9.30564 7.63393,9.35635 7.61767,9.36758 7.60141,9.37339 7.58515,9.37339 c -0.01086,0 -0.02169,0 -0.03253,-0.00581 H 7.54177 v 0 L 7.47672,9.41268 C 7.40624,9.3339 7.33034,9.26615 7.25444,9.1986 6.92914,8.93382 6.53337,8.77045 6.12136,8.73097 L 6.11593,8.6578 C 6.1105,8.65219 6.1105,8.65219 6.10509,8.64658 6.08881,8.62954 6.06714,8.6127 6.06171,8.57322 6.05629,8.48302 6.06714,8.38179 6.07798,8.26894 V 8.26333 C 6.07798,8.24649 6.0834,8.22384 6.08881,8.20701 6.09424,8.17333 6.09967,8.13946 6.10509,8.09997 v -0.03388 -0.01683 0 0 c 0,-0.10143 -0.0759,-0.18581 -0.16806,-0.18581 -0.04338,0 -0.08676,0.02245 -0.11928,0.05632 C 5.78522,7.95345 5.76896,7.99855 5.76896,8.04926 v 0 0 0.01122 0.03388 c 0,0.03949 0.00541,0.07316 0.01626,0.10703 0.00543,0.01684 0.00543,0.03388 0.01086,0.05633 V 8.26333 C 5.80691,8.37598 5.82317,8.47741 5.81232,8.56761 5.80691,8.60709 5.78522,8.62393 5.76896,8.64077 5.76353,8.64658 5.76353,8.64658 5.75811,8.65219 v 0 L 5.7527,8.72535 C 5.65511,8.73658 5.55752,8.748 5.45994,8.77045 5.04248,8.86627 4.67383,9.08595 4.38648,9.40145 L 4.33227,9.36196 H 4.32143 c -0.01085,0 -0.02169,0.00562 -0.03252,0.00562 C 4.27263,9.36758 4.25638,9.36196 4.2401,9.35074 4.16963,9.30003 4.09915,9.22686 4.02325,9.14228 v 0 C 4.01242,9.13105 4.00156,9.11422 3.9853,9.10279 3.96361,9.07473 3.94192,9.05208 3.91482,9.02402 3.9094,9.0184 3.89856,9.01279 3.88771,9.00137 3.8823,8.99575 3.87687,8.99575 3.87687,8.99014 v 0 C 3.84435,8.96208 3.80097,8.94504 3.75759,8.94504 3.70881,8.94504 3.66002,8.96769 3.6329,9.00718 3.57869,9.08034 3.59495,9.19299 3.67086,9.26054 v 0 0 c 0.00542,0 0.00542,0.00561 0.01083,0.00561 0.01085,0.00581 0.01628,0.01704 0.02712,0.02265 0.03252,0.02245 0.05964,0.03949 0.09216,0.05633 0.01626,0.00561 0.03252,0.01683 0.04879,0.02826 v 0 C 3.94735,9.43533 4.02868,9.48604 4.09372,9.54798 4.12084,9.57604 4.12084,9.6043 4.12084,9.63256 v 0.01123 0 L 4.17505,9.6945 C 4.1642,9.71134 4.15336,9.72256 4.14794,9.7396 3.87687,10.1846 3.77387,10.7085 3.84435,11.2269 l -0.07048,0.0224 c 0,0.0059 -0.00542,0.0059 -0.00542,0.0115 -0.01086,0.0224 -0.02712,0.0451 -0.05964,0.0619 -0.08133,0.0281 -0.1789,0.0395 -0.29276,0.0507 H 3.41062 c -0.01626,0 -0.03795,0 -0.05421,0.0056 -0.03252,0 -0.06505,0.0056 -0.103,0.0113 -0.01085,0 -0.02169,0.0056 -0.03254,0.0056 -0.00541,0 -0.01084,0 -0.01626,0.0056 v 0 0 c -0.09759,0.0226 -0.15721,0.1184 -0.14095,0.2084 0.01626,0.079 0.08673,0.1297 0.17347,0.1297 0.01628,0 0.02712,0 0.04338,-0.0056 v 0 0 c 0.00543,0 0.01085,0 0.01085,-0.0056 0.01084,0 0.02167,-0.0058 0.03253,-0.0058 0.03795,-0.0112 0.06505,-0.0225 0.09757,-0.0393 0.01628,-0.0056 0.03254,-0.017 0.04881,-0.0226 h 0.00542 c 0.103,-0.0393 0.19517,-0.0732 0.2819,-0.0844 h 0.01086 c 0.03252,0 0.05421,0.0168 0.07047,0.028 0.00543,0 0.00543,0.0056 0.01084,0.0056 v 0 l 0.0759,-0.0112 c 0.13011,0.4169 0.37951,0.7888 0.71021,1.0594 0.07591,0.0619 0.15181,0.1126 0.23312,0.1633 l -0.03253,0.0732 c 0,0.0056 0.00543,0.0056 0.00543,0.0112 0.01084,0.0227 0.02169,0.0507 0.01084,0.0902 -0.03253,0.0846 -0.08131,0.169 -0.14095,0.2648 v 0.0056 c -0.01084,0.0168 -0.02169,0.0283 -0.03255,0.0451 -0.02167,0.0283 -0.03793,0.0563 -0.05962,0.0902 -0.00542,0.0056 -0.01085,0.0168 -0.01626,0.0281 0,0.0056 -0.00543,0.0112 -0.00543,0.0112 v 0 0 c -0.04337,0.0958 -0.01083,0.2028 0.07048,0.2423 0.02169,0.0113 0.04338,0.0169 0.06507,0.0169 0.06504,0 0.13011,-0.0449 0.16263,-0.1071 v 0 0 c 0,-0.0056 0.00543,-0.0112 0.00543,-0.0112 0.00543,-0.0112 0.01084,-0.0224 0.01626,-0.0281 0.01627,-0.0394 0.02169,-0.0677 0.03253,-0.1014 0.00543,-0.017 0.01083,-0.0339 0.01626,-0.0507 v 0 c 0.03795,-0.1126 0.06507,-0.2028 0.11385,-0.2818 0.02169,-0.0337 0.04879,-0.0393 0.07048,-0.0507 0.00543,0 0.00543,0 0.01083,-0.0056 v 0 l 0.03795,-0.0732 c 0.23857,0.0958 0.4988,0.1465 0.75903,0.1465 0.15721,0 0.31985,-0.017 0.47165,-0.0563 0.09759,-0.0227 0.18976,-0.0507 0.28192,-0.0846 l 0.03252,0.0619 c 0.00543,0 0.00543,0 0.01086,0.0057 0.0271,0.0056 0.04879,0.017 0.07047,0.0507 0.04336,0.0789 0.07591,0.1748 0.11384,0.2818 v 0.0056 c 0.00542,0.0168 0.01085,0.0337 0.01628,0.0507 0.01083,0.0337 0.01626,0.0676 0.03252,0.1014 0.00543,0.0113 0.01086,0.0169 0.01626,0.0281 0,0.0056 0.00543,0.0112 0.00543,0.0112 v 0 0 c 0.03253,0.0678 0.09757,0.1071 0.16264,0.1071 0.02169,0 0.04338,-0.0056 0.06507,-0.0169 C 7.27613,13.6609 7.30865,13.627 7.31949,13.5819 7.33034,13.5368 7.33034,13.4861 7.30865,13.441 v 0 0 c 0,-0.0056 -0.00542,-0.0056 -0.00542,-0.0112 C 7.2978,13.4185 7.29239,13.4073 7.28696,13.4017 7.2707,13.3678 7.24901,13.3398 7.22732,13.3115 7.21649,13.2947 7.20564,13.2832 7.1948,13.2664 V 13.2608 C 7.13516,13.165 7.08095,13.0806 7.05383,12.996 c -0.01083,-0.0395 0,-0.0619 0.00543,-0.0902 0,-0.0056 0.00543,-0.0056 0.00543,-0.0112 v 0 L 7.03757,12.827 c 0.28735,-0.1747 0.53131,-0.4225 0.71562,-0.7268 0.09757,-0.1577 0.1735,-0.3325 0.22773,-0.5071 l 0.06503,0.0112 c 0.0054,0 0.0054,-0.0056 0.01089,-0.0056 0.02167,-0.0112 0.03791,-0.028 0.07044,-0.028 h 0.01083 c 0.08674,0.0112 0.1789,0.0449 0.2819,0.0843 h 0.00543 c 0.01632,0.0057 0.03256,0.0169 0.04882,0.0227 0.03251,0.0168 0.05966,0.0281 0.0976,0.0393 0.01083,0 0.02166,0.0056 0.0325,0.0056 0.00541,0 0.01083,0 0.01632,0.0058 v 0 c 0.01624,0.0056 0.02708,0.0056 0.04334,0.0056 0.08133,0 0.15182,-0.0563 0.17349,-0.1297 0,-0.0675 -0.05966,-0.1577 -0.15725,-0.1858 z M 6.17014,11.1423 5.9316,11.2608 5.69306,11.1423 5.63342,10.8775 5.79606,10.6634 h 0.26565 l 0.16264,0.2141 z m 1.41501,-0.5859 c 0.04336,0.1916 0.05421,0.3833 0.03795,0.5691 L 6.79362,10.8775 C 6.71772,10.8551 6.67434,10.7761 6.6906,10.6973 6.69603,10.6747 6.70686,10.6522 6.72313,10.6354 l 0.656,-0.6142 c 0.09216,0.1578 0.16264,0.338 0.20602,0.5352 z M 7.1189,9.68308 6.40868,10.207 C 6.34906,10.2465 6.26773,10.2353 6.21893,10.1734 6.20266,10.1565 6.19726,10.1339 6.19183,10.1114 L 6.14304,9.19299 C 6.51713,9.23809 6.85867,9.41268 7.1189,9.68308 Z M 5.54668,9.22125 C 5.6063,9.20983 5.66053,9.1986 5.72016,9.18738 L 5.67137,10.0888 c -0.00543,0.0789 -0.06507,0.1465 -0.14638,0.1465 -0.02169,0 -0.04878,-0.0056 -0.06505,-0.0168 L 4.73889,9.68308 C 4.96115,9.45216 5.23765,9.29441 5.54668,9.22125 Z m -1.06804,0.79995 0.64517,0.5971 c 0.05964,0.0508 0.06505,0.1466 0.01626,0.2085 -0.01626,0.0227 -0.03795,0.0395 -0.06506,0.0451 L 4.23467,11.1255 C 4.20215,10.7424 4.28348,10.3536 4.47864,10.0212 Z M 4.33227,11.548 5.19429,11.3959 c 0.07047,-0.0056 0.13552,0.0451 0.1518,0.1184 0.00543,0.0337 0.00543,0.062 -0.00543,0.09 v 0 l -0.3307,0.8283 C 4.70635,12.2297 4.46238,11.9198 4.33227,11.548 Z m 1.97884,1.1213 c -0.12471,0.0281 -0.2494,0.0451 -0.37951,0.0451 -0.18976,0 -0.37408,-0.0339 -0.54756,-0.0902 l 0.42828,-0.8058 c 0.04338,-0.0507 0.11385,-0.0732 0.17349,-0.0393 0.02712,0.0169 0.04881,0.0393 0.06505,0.062 v 0 l 0.41746,0.7831 c -0.04878,0.0168 -0.103,0.0281 -0.15721,0.0451 z M 7.36829,11.8862 C 7.23275,12.1115 7.05383,12.2917 6.84783,12.4326 L 6.50627,11.5819 c -0.01626,-0.0676 0.01086,-0.1409 0.07591,-0.1746 0.02168,-0.0114 0.04878,-0.017 0.0759,-0.017 l 0.86743,0.1521 c -0.03253,0.1239 -0.08674,0.2367 -0.15722,0.3438 z"
         fill="#ffffff"
         fill-rule="nonzero"
         opacity="1"
         stroke="none"
         id="path10" /></g></g><g
     id="Layer-1"
     vectornator:layerName="Layer 1" /></svg>
