<?xml version='1.0' encoding='utf-8'?>
<!-- Generator: imaengine 6.0   -->
<svg xmlns:xlink="http://www.w3.org/1999/xlink" xmlns="http://www.w3.org/2000/svg" viewBox="0,0,14,17" style="enable-background:new 0 0 14 17;" version="1.1">
<defs/>
<g id="layer0">
<path d="M21.7735,20.7338L32.8493,20.7338C33.4973,20.7338 34.0227,21.2591 34.0227,21.9072L34.0227,35.8574C34.0227,36.5055 33.4973,37.0308 32.8493,37.0308L21.7735,37.0308C21.1254,37.0308 20.6001,36.5055 20.6001,35.8574L20.6001,21.9072C20.6001,21.2591 21.1254,20.7338 21.7735,20.7338L21.7735,20.7338L21.7735,20.7338Z" stroke="#6A6A6A" stroke-width="0.1" stroke-linecap="square" fill="#6A6A6A"/>
<path d="M21.7001,20.5678L32.7758,20.5678C33.4239,20.5678 33.9493,21.0932 33.9493,21.7413L33.9493,35.6914C33.9493,36.3395 33.4239,36.8649 32.7758,36.8649L21.7001,36.8649C21.052,36.8649 20.5267,36.3395 20.5267,35.6914L20.5267,21.7413C20.5267,21.0932 21.052,20.5678 21.7001,20.5678L21.7001,20.5678L21.7001,20.5678Z" stroke="#6A6A6A" stroke-width="0.1" stroke-linecap="square" fill="#6A6A6A"/>
<path d="M22.7021,23.7732C25.7508,23.7812 32.0048,23.7524 32.0048,23.7524L22.7021,23.7732L22.7021,23.7732Z" stroke="#6A6A6A" stroke-width="1.1" stroke-linecap="round" fill="#6A6A6A" stroke-linejoin="round"/>
<path d="M22.7021,23.7732C25.7508,23.7812 32.0048,23.7524 32.0048,23.7524L22.7021,23.7732L22.7021,23.7732Z" stroke="#6A6A6A" stroke-width="1.1" stroke-linecap="round" fill="#6A6A6A" stroke-linejoin="round"/>
<path d="M22.7021,23.7732C25.7508,23.7812 32.0048,23.7524 32.0048,23.7524L22.7021,23.7732L22.7021,23.7732Z" stroke="#6A6A6A" stroke-width="1.1" stroke-linecap="round" fill="#6A6A6A" stroke-linejoin="round"/>
<path d="M10.0599,5.49411L3.99057,5.50654L10.0599,5.49411Z" stroke="#B4B4B4" stroke-width="1.7" stroke-linecap="round" fill="none" stroke-linejoin="round"/>
<path d="M3.44598,1.63016L10.5562,1.63016C11.657,1.63016 12.5492,2.56575 12.5492,3.71986L12.5492,13.8437C12.5492,14.9978 11.657,15.9334 10.5562,15.9334L3.44598,15.9334C2.34528,15.9334 1.453,14.9978 1.453,13.8437L1.453,3.71986C1.453,2.56575 2.34528,1.63016 3.44598,1.63016L3.44598,1.63016Z" stroke="#B4B4B4" stroke-width="1.7" stroke-linecap="round" fill="none" stroke-linejoin="round"/>
<path d="M10.0607,8.6503L3.98983,8.66182L10.0607,8.6503Z" stroke="#B4B4B4" stroke-width="1.7" stroke-linecap="round" fill="none" stroke-linejoin="round"/>
<path d="M10.0599,11.8056L3.99057,11.818L10.0599,11.8056Z" stroke="#B4B4B4" stroke-width="1.7" stroke-linecap="round" fill="none" stroke-linejoin="round"/>
</g>
</svg>
