<?xml version='1.0' encoding='utf-8'?>
<!-- Generator: imaengine 6.0   -->
<svg xmlns:xlink="http://www.w3.org/1999/xlink" xmlns="http://www.w3.org/2000/svg" viewBox="0,0,14,17" style="enable-background:new 0 0 14 17;" version="1.1">
<defs/>
<g id="layer0">
<path d="M6.84162,12.4738C6.84162,12.2241 6.60427,12.1683 6.40955,12.1683C6.21476,12.1683 6.05235,12.2245 6.05235,12.4741L6.02552,15.2147C6.02552,15.4643 5.72911,15.8096 5.53438,15.8096L1.56623,15.8143C1.39326,15.8214 1.08201,15.6399 0.997813,15.237L0.957364,6.25742C0.957364,6.13259 0.951388,5.69315 1.51836,5.59065L5.47675,5.59198C6.06016,5.62549 6.04762,5.83924 6.057,6.26049L6.05745,9.27541C6.05745,9.52501 6.23487,9.57366 6.4296,9.57366C6.62438,9.57366 6.84672,9.52467 6.84672,9.27507L6.84652,6.37142C6.92342,5.61779 6.60973,4.76778 5.62093,4.72479L1.72602,4.70108C0.793636,4.70673 0.113271,5.347 0.140143,6.41593L0.159648,15.2311C0.159648,15.98 0.857801,16.7107 1.44204,16.7107L5.6857,16.716C6.04058,16.6955 6.27429,16.5174 6.51163,16.2676C6.74896,16.0179 6.85283,15.6705 6.84738,15.4749C6.84832,15.1476 6.82915,12.8178 6.84162,12.4738Z" fill="#6A6A6A"/>
<path d="M4.31075,8.66137L2.47117,10.5595C2.32811,10.7102 2.32811,10.9741 2.47117,11.1249L4.31075,13.0634C4.45628,13.2115 4.70677,13.1762 4.8473,13.0229C4.98441,12.8734 4.98441,12.6476 4.8473,12.498L3.62091,11.246L6.01554,11.2477L8.22253,11.2735L10.3712,11.232L9.14477,12.484C9.00422,12.6374 9.03758,12.9012 9.18315,13.0493C9.32504,13.1936 9.53942,13.1938 9.68131,13.0493L11.5209,11.1108C11.664,10.9601 11.664,10.6962 11.5209,10.5455L9.68131,8.64735C9.53586,8.49924 9.28531,8.49407 9.14477,8.64735C9.00766,8.79696 9.00766,9.02275 9.14477,9.17235L10.3712,10.4647L8.19824,10.5006L6.00182,10.4954L3.62091,10.4787L4.8473,9.18638C4.98784,9.03302 4.9545,8.80947 4.80897,8.66137C4.66702,8.51699 4.45267,8.51693 4.31075,8.66137L4.31075,8.66137L4.31075,8.66137Z" stroke="#6A6A6A" stroke-width="0.0680287" stroke-linecap="square" fill="#6A6A6A"/>
<path d="M7.17166,14.3386L7.15767,12.4716C7.15767,12.2225 7.37632,12.1628 7.57105,12.1628C7.76583,12.1628 7.97247,12.2705 7.97247,12.5196L7.99912,15.3307C7.99912,15.5799 8.15804,15.8267 8.35276,15.8267L12.2546,15.7959C12.4276,15.8031 12.9002,15.6433 12.9844,15.2412L12.9984,6.21203C12.9984,6.08746 12.9374,5.60015 12.2385,5.54348L8.4983,5.56867C7.9149,5.6021 7.98431,5.90017 7.95356,6.4653L7.95398,9.33583C7.95398,9.58489 7.71746,9.56925 7.52274,9.56925C7.32795,9.56925 7.13919,9.53684 7.13919,9.28778L7.13236,6.37285C7.05546,5.62087 7.43868,4.78298 8.42748,4.74008L12.2891,4.70537C13.2215,4.71102 13.8655,5.22629 13.8387,6.29288L13.8207,15.3001C13.8207,16.0474 13.1297,16.6895 12.5455,16.6895L8.33502,16.7059C7.34857,16.8562 7.16485,15.6833 7.16793,15.4709L7.17166,14.3386Z" fill="#6A6A6A"/>
</g>
</svg>
