<?xml version="1.0" encoding="UTF-8" standalone="no"?>
<!DOCTYPE svg PUBLIC "-//W3C//DTD SVG 1.1//EN" "http://www.w3.org/Graphics/SVG/1.1/DTD/svg11.dtd">
<!-- Created with Vectornator (http://vectornator.io/) -->
<svg height="100%" stroke-miterlimit="10" style="fill-rule:nonzero;clip-rule:evenodd;stroke-linecap:round;stroke-linejoin:round;" version="1.1" viewBox="0 0 14.5 17.4" width="100%" xml:space="preserve" xmlns="http://www.w3.org/2000/svg" xmlns:vectornator="http://vectornator.io" xmlns:xlink="http://www.w3.org/1999/xlink">
<defs/>
<clipPath id="ArtboardFrame">
<rect height="17.4" width="14.5" x="0" y="0"/>
</clipPath>
<g clip-path="url(#ArtboardFrame)" id="Untitled" vectornator:layerName="Untitled">
<path d="M21.7735 20.7338L32.8493 20.7338C33.4973 20.7338 34.0227 21.2591 34.0227 21.9072L34.0227 35.8574C34.0227 36.5055 33.4973 37.0308 32.8493 37.0308L21.7735 37.0308C21.1254 37.0308 20.6001 36.5055 20.6001 35.8574L20.6001 21.9072C20.6001 21.2591 21.1254 20.7338 21.7735 20.7338Z" fill="#6a6a6a" fill-rule="evenodd" opacity="1" stroke="#6a6a6a" stroke-linecap="square" stroke-linejoin="miter" stroke-width="0.1"/>
<path d="M21.7001 20.5678L32.7758 20.5678C33.4239 20.5678 33.9493 21.0932 33.9493 21.7413L33.9493 35.6914C33.9493 36.3395 33.4239 36.8649 32.7758 36.8649L21.7001 36.8649C21.052 36.8649 20.5267 36.3395 20.5267 35.6914L20.5267 21.7413C20.5267 21.0932 21.052 20.5678 21.7001 20.5678Z" fill="#6a6a6a" fill-rule="evenodd" opacity="1" stroke="#6a6a6a" stroke-linecap="square" stroke-linejoin="miter" stroke-width="0.1"/>
<path d="M22.7021 23.7732C25.7508 23.7812 32.0048 23.7524 32.0048 23.7524" fill="#6a6a6a" fill-rule="evenodd" opacity="1" stroke="#6a6a6a" stroke-linecap="round" stroke-linejoin="miter" stroke-width="1.1"/>
<path d="M22.7021 23.7732C25.7508 23.7812 32.0048 23.7524 32.0048 23.7524" fill="#6a6a6a" fill-rule="evenodd" opacity="1" stroke="#6a6a6a" stroke-linecap="round" stroke-linejoin="miter" stroke-width="1.1"/>
<path d="M22.7021 23.7732C25.7508 23.7812 32.0048 23.7524 32.0048 23.7524" fill="#6a6a6a" fill-rule="evenodd" opacity="1" stroke="#6a6a6a" stroke-linecap="round" stroke-linejoin="miter" stroke-width="1.1"/>
<path d="M4.89567 5.84273L7.22873 5.84294L9.60433 5.84315" fill="#adadad" fill-rule="evenodd" opacity="1" stroke="#adadad" stroke-linecap="round" stroke-linejoin="miter" stroke-width="1.4"/>
<path d="M4.77836 8.92299L7.22767 8.9232L9.72164 8.92341" fill="#adadad" fill-rule="evenodd" opacity="1" stroke="#adadad" stroke-linecap="round" stroke-linejoin="miter" stroke-width="1.4"/>
<path d="M4.77836 12.0032L6.69091 12.0034L7.22767 12.0035L9.72164 12.0037" fill="#adadad" fill-rule="evenodd" opacity="1" stroke="#adadad" stroke-linecap="round" stroke-linejoin="miter" stroke-width="1.4"/>
<path d="M2.75 1.21875C1.70258 1.21875 0.84375 2.04633 0.84375 3.09375L0.84375 15.0312C0.84375 16.0787 1.70258 16.9375 2.75 16.9375L11.9688 16.9375C13.0162 16.9375 13.875 16.0787 13.875 15.0312L13.875 3.09375C13.875 2.04633 13.0162 1.21875 11.9688 1.21875L2.75 1.21875ZM3.90625 2.75L10.8125 2.75C11.6559 2.75 12.3125 3.4601 12.3125 4.34375L12.3438 13.875C12.3438 14.7587 11.6559 15.4688 10.8125 15.4688L3.90625 15.5C3.06287 15.5 2.40625 14.7587 2.40625 13.875L2.375 4.34375C2.375 3.4601 3.06287 2.75 3.90625 2.75Z" fill="#adadad" fill-rule="evenodd" opacity="1" stroke="#adadad" stroke-linecap="round" stroke-linejoin="round" stroke-width="0.1"/>
</g>
</svg>
