<?xml version="1.0" encoding="UTF-8" standalone="no"?>
<!-- Created with Inkscape (http://www.inkscape.org/) -->

<svg
   width="13"
   height="13"
   viewBox="0 0 3.4395833 3.4395834"
   version="1.1"
   id="svg1"
   inkscape:export-filename="describe.svg"
   inkscape:export-xdpi="96"
   inkscape:export-ydpi="96"
   inkscape:version="1.3.2 (091e20e, 2023-11-25)"
   sodipodi:docname="lupe.svg"
   xmlns:inkscape="http://www.inkscape.org/namespaces/inkscape"
   xmlns:sodipodi="http://sodipodi.sourceforge.net/DTD/sodipodi-0.dtd"
   xmlns="http://www.w3.org/2000/svg"
   xmlns:svg="http://www.w3.org/2000/svg"
   xmlns:rdf="http://www.w3.org/1999/02/22-rdf-syntax-ns#"
   xmlns:cc="http://creativecommons.org/ns#"
   xmlns:dc="http://purl.org/dc/elements/1.1/">
  <defs
     id="defs1">
    <inkscape:path-effect
       effect="fillet_chamfer"
       id="path-effect4"
       is_visible="true"
       lpeversion="1"
       nodesatellites_param="F,0,0,1,0,0,0,1 @ F,0,0,1,0,0,0,1 @ F,0,0,1,0,0,0,1 @ F,0,0,1,0,0,0,1 | F,0,0,1,0,0,0,1 @ F,0,1,1,0,1.1298598,0,1 @ F,0,0,1,0,0,0,1 @ F,0,0,1,0,1.3109244,0,1"
       radius="0"
       unit="px"
       method="auto"
       mode="F"
       chamfer_steps="1"
       flexible="false"
       use_knot_distance="true"
       apply_no_radius="true"
       apply_with_radius="true"
       only_selected="false"
       hide_knots="false" />
  </defs>
  <sodipodi:namedview
     id="base"
     pagecolor="#ffffff"
     bordercolor="#000000"
     borderopacity="0.3"
     inkscape:pageopacity="0.0"
     inkscape:pageshadow="2"
     inkscape:zoom="48.843112"
     inkscape:cx="6.4799311"
     inkscape:cy="7.1146163"
     inkscape:document-units="px"
     inkscape:showpageshadow="2"
     inkscape:pagecheckerboard="0"
     inkscape:deskcolor="#d1d1d1"
     inkscape:window-width="1312"
     inkscape:window-height="1212"
     inkscape:window-x="0"
     inkscape:window-y="44"
     inkscape:window-maximized="0"
     inkscape:current-layer="svg1" />
  <metadata
     id="metadata1">
    <rdf:RDF>
      <cc:Work
         rdf:about="">
        <dc:format>image/svg+xml</dc:format>
        <dc:type
           rdf:resource="http://purl.org/dc/dcmitype/StillImage" />
      </cc:Work>
    </rdf:RDF>
  </metadata>
  <g
     id="g1"
     transform="matrix(0.64692896,0,0,0.64385786,-3.7624431,-3.5618499)"
     style="fill:#000000;fill-opacity:1">
    <path
       d="M 11.13762,9.8602213 10.260955,10.864743 9.4982383,10.164852 V 9.2697046 l 0.8180497,-0.00841 z"
       id="path1"
       style="display:inline;fill:#aeb1b3;fill-opacity:1;stroke-width:0.465616"
       sodipodi:nodetypes="cccccc" />
    <g
       id="g2">
      <path
         d="M 8.2560761,9.6964515 C 7.0248178,9.8093174 5.9510308,8.9844586 5.831396,7.8338672 5.7117611,6.6832756 6.5953594,5.6789891 7.8266177,5.566123 9.057876,5.4532571 10.131663,6.2781159 10.251298,7.4287074 10.370933,8.5792989 9.4873345,9.5835855 8.2560761,9.6964515 Z M 8.0051966,6.4590507 C 7.6607344,6.4639286 7.3233145,6.5663243 7.0620141,6.7442075 6.5714772,7.0781461 6.6225007,8.299908 7.1141927,8.6546518 7.3348636,8.8138605 7.6348591,8.9189125 8.0356302,8.904484 8.3236516,8.8941147 8.5644308,8.8435789 8.7631792,8.7687202 9.3965908,8.5301454 9.4804539,7.1408201 8.908622,6.7238422 8.67806,6.5557172 8.3812885,6.4537249 8.0051966,6.4590507 Z"
         id="path2"
         style="display:inline;fill:#aeb1b3;fill-opacity:1;stroke-width:0.306641"
         sodipodi:nodetypes="ssssssssss"
         inkscape:path-effect="#path-effect4"
         inkscape:original-d="M 8.2560761,9.6964515 C 7.0248178,9.8093174 5.9510308,8.9844586 5.831396,7.8338672 5.7117611,6.6832756 6.5953594,5.6789891 7.8266177,5.566123 9.057876,5.4532571 10.131663,6.2781159 10.251298,7.4287074 10.370933,8.5792989 9.4873345,9.5835855 8.2560761,9.6964515 Z M 8.0051966,6.4590507 C 7.237724,6.4699188 6.5052103,6.9648772 6.5716648,7.700267 6.6095532,8.1195424 6.958866,8.9432495 8.0356302,8.904484 9.2322035,8.8614052 9.6133987,8.1250706 9.552896,7.8315349 9.4085946,7.1314406 8.9654325,6.4454529 8.0051966,6.4590507 Z" />
    </g>
    <path
       d="M 8.882909,9.0383367 9.2505566,8.7054743 10.536964,9.8708179 10.169316,10.20368 Z"
       id="path3"
       style="fill:#aeb1b3;fill-opacity:1;stroke-width:0.49542;stroke-dasharray:none" />
  </g>
  <path
     style="fill:#000000;fill-opacity:0;stroke-width:0.171;stroke-dasharray:none"
     id="path4"
     d="m 2.4162268,2.2511321 c -0.019219,0.00694 -0.032574,0.013212 -0.05546,0.011331 -0.00541,-4.445e-4 -0.00906,-0.00597 -0.013475,-0.00912 -0.0015,-0.00107 -0.0054,-0.00208 -0.00426,-0.00353 0.00395,-0.00505 0.019522,0.00111 0.026742,0.00297 0.015773,0.00351 0.031122,0.00924 0.04757,0.00566 0.0059,-0.00129 0.010931,-0.00515 0.016495,-0.00749 0.00641,-0.0027 0.0127,-0.00581 0.019402,-0.00766 0.02838,-0.00783 0.031429,-0.00428 0.063971,-0.00179 0.063665,0.00723 0.026757,0.00197 0.094432,0.01439 0.018314,0.00336 0.036833,0.00572 0.05497,0.00993 0.019794,0.0046 0.038904,0.011864 0.058696,0.016474 0.1067184,0.024857 -0.020262,-0.013963 0.1023231,0.02646 0.04632,0.020435 0.085751,0.036733 0.1303705,0.060813 0.02086,0.011257 0.041078,0.023676 0.061252,0.036118 0.033445,0.020626 0.061675,0.038806 0.09094,0.064787 0.010612,0.00942 0.019865,0.020273 0.029797,0.03041 0.4759515,1.2120502 0.034656,0.067466 -3.26895952,-1.87483181 -0.005257,-0.003091 0.003954,-0.0115393 0.00597,-0.017295 0.002506,-0.007153 0.005601,-0.0141192 0.007598,-0.0214307 0.003011,-0.0110231 0.002846,-0.0192379 0.003369,-0.0303625 -0.005868,0.007119 0.006447,-0.0341154 0.001511,-0.0266944 -0.009077,0.0136485 -0.0145631,0.0293723 -0.021596,0.0441782 -0.005794,0.0121978 -0.0284729,0.0298988 -0.0168817,0.036827 C 3.2473437,2.6412838 2.4907384,3.6681412 3.2846819,2.5630191 c 0.024196,-0.040503 0.050204,-0.079789 0.067548,-0.1238859 0.00379,-0.00964 0.00661,-0.019649 0.00959,-0.029573 0.00751,-0.024956 0.00611,-0.01709 0.00671,-0.038251 0.00293,-0.019474 0.013552,-0.035742 0.02104,-0.053464 0.00514,-0.012171 0.00894,-0.026184 0.018127,-0.036261 0.0049,-0.00537 0.011972,-0.00825 0.017957,-0.012377 0.00285,-0.016338 0.034332,-4.895e-4 0.038786,-0.013425 0.0033,-0.00959 -0.00462,-0.019741 -0.00693,-0.029613 -0.00235,-0.010044 -0.00665,-0.019828 -0.00703,-0.030135 -9.261e-4,-0.024985 0.00641,-0.032109 0.017605,-0.052283 0.012475,-0.013954 0.019463,-0.031963 0.03138,-0.046302 0.0057,-0.00686 0.01352,-0.011759 0.019182,-0.018648 0.00611,-0.00744 0.0086,-0.017855 0.015946,-0.024085 0.019902,-0.016891 0.036172,-0.013771 0.060116,-0.01511 0.042529,-0.00341 0.022566,-0.00485 0.059995,0.00247 0,0 -3.27018122,-1.99534031 -3.27018122,-1.99534031 v 0 c 0.008167,0.03461968 0.003149,0.01774603 0.0149548,0.05065039 7.2496e-4,0.0167459 0.004868,0.04111044 -0.005481,0.05702127 -0.005181,0.007965 -0.0152421,0.0114718 -0.0218832,0.0182674 -0.006698,0.006854 -0.0112935,0.0155596 -0.0179305,0.0224723 -0.001371,0.001427 -0.0390568,0.0338499 -0.0419542,0.036347 -0.0077,0.00555 -0.0145523,0.0125218 -0.0230997,0.0166485 -0.018846,0.009099 -0.0480141,0.0120514 -0.0678788,0.0123163 -0.0106744,1.4237e-4 -0.0219417,-0.006353 -0.0319231,-0.002566 -0.009318,0.003535 0.00892,0.0265268 -0.00287,0.0297603 -0.002194,0.004181 -0.003005,0.009461 -0.006581,0.0125431 -0.003866,0.003331 -0.009556,0.003586 -0.0143037,0.005456 -0.006459,0.002543 -0.0130416,0.004815 -0.0193159,0.007785 -0.0194551,0.009211 -0.0241039,0.0174808 -0.0455033,0.0082 C 0.09453875,0.3217736 0.0879674,0.32408612 0.0820863,0.32203824 0.07150001,0.31834896 0.06775046,0.29981789 0.06793209,0.29182486 0.06885154,0.25136392 0.09200738,0.21365812 0.10739504,0.17803247 0.79199681,-0.99446187 0.13702195,0.09799471 3.5332402,2.1277703 c 0.011335,0.00677 -0.012565,0.023231 -0.019082,0.034715 -0.00779,0.013733 -0.012274,0.030183 -0.023842,0.040932 -0.00932,0.00866 0.00945,-0.049105 -0.00335,-0.038027 -0.0018,-0.00967 -0.00779,-0.041533 -0.00882,-0.049972 -0.00138,-0.011308 -9.261e-4,-0.022828 -0.00286,-0.034054 -0.00177,-0.010337 7.672e-4,-0.025034 -0.00826,-0.030366 C 0.17014162,0.10534959 0.78322256,-0.98509306 0.15483751,0.14920797 c -6.9533e-4,0.005777 -0.00169,0.0115248 -0.002086,0.0173295 -0.002729,0.0400847 0.002388,-0.003906 -0.001685,0.0348108 -6.5193e-4,0.006199 3.9873e-4,0.0129607 -0.002361,0.0185496 -0.006876,0.0139256 -0.0233799,0.0155644 -0.0358734,0.0195885 -0.08651164,-0.009233 0.00501,0.002757 -0.09813924,-0.0194815 -0.01359315,-0.002931 -0.02771401,-0.002943 -0.04128882,-0.005958 -0.01634752,-0.00363 -0.0322443,-0.009063 -0.04826748,-0.0139294 -0.06031968,-0.018318 -0.04926403,-0.0153856 -0.1104831,-0.0389653 -0.063803,-0.0267423 -0.061324,-0.0244532 -0.12629516,-0.057268 -0.0651089,-0.03288441 -0.12716923,-0.07144964 -0.19335461,-0.10221978 -0.0126524,-0.00548969 -0.025413,-0.010736 -0.037957,-0.01646907 -0.0149045,-0.006812 -0.0293398,-0.01464271 -0.0443755,-0.02116016 -0.0165597,-0.0071781 -0.0336073,-0.01317542 -0.0503554,-0.01990248 -0.0169415,-0.0068047 -0.0328045,-0.01713751 -0.0507122,-0.0206923 -0.040312,-0.0080021 -0.0596421,-0.002753 -0.0949545,0.0030629 z" />
</svg>
