<?xml version="1.0" encoding="UTF-8" standalone="no"?> <!-- Created with Vectornator for iOS (http://vectornator.io/) --><!DOCTYPE svg PUBLIC "-//W3C//DTD SVG 1.1//EN" "http://www.w3.org/Graphics/SVG/1.1/DTD/svg11.dtd">
<svg height="100%" style="fill-rule:nonzero;clip-rule:evenodd;stroke-linecap:round;stroke-linejoin:round;" xmlns:xlink="http://www.w3.org/1999/xlink" xmlns="http://www.w3.org/2000/svg" xml:space="preserve" width="100%" xmlns:vectornator="http://vectornator.io" version="1.1" viewBox="0 0 16 16">
<metadata>
<vectornator:setting key="DimensionsVisible" value="0"/>
<vectornator:setting key="PencilOnly" value="0"/>
<vectornator:setting key="SnapToPoints" value="0"/>
<vectornator:setting key="OutlineMode" value="0"/>
<vectornator:setting key="CMYKEnabledKey" value="0"/>
<vectornator:setting key="RulersVisible" value="1"/>
<vectornator:setting key="SnapToEdges" value="0"/>
<vectornator:setting key="GuidesVisible" value="0"/>
<vectornator:setting key="DisplayWhiteBackground" value="0"/>
<vectornator:setting key="doHistoryDisabled" value="0"/>
<vectornator:setting key="SnapToGuides" value="1"/>
<vectornator:setting key="TimeLapseWatermarkDisabled" value="0"/>
<vectornator:setting key="Units" value="Points"/>
<vectornator:setting key="DynamicGuides" value="1"/>
<vectornator:setting key="IsolateActiveLayer" value="0"/>
<vectornator:setting key="SnapToGrid" value="0"/>
</metadata>
<defs/>
<g id="Untitled" vectornator:layerName="Untitled">
<path d="M14.6302+5.80675L14.6302+4.38224L14.6302+2.95773C14.6302+2.28489+14.3358+1.67475+13.8605+1.23283C13.3852+0.790904+12.7289+0.517192+12.0052+0.517192L11.3177+0.517192L10.6302+0.517192C10.4231+0.517192+10.2356+0.595239+10.0999+0.721424C9.96417+0.84761+9.88022+1.02193+9.88022+1.21449C9.88022+1.40705+9.96417+1.58138+10.0999+1.70756C10.2356+1.83375+10.4231+1.91179+10.6302+1.91179L11.3177+1.91179L12.0052+1.91179C12.3154+1.91179+12.5966+2.02909+12.8003+2.21848C13.004+2.40787+13.1302+2.66936+13.1302+2.95773L13.1302+4.52666L13.1302+6.09558C13.1302+6.18805+13.1302+9.72204+13.1302+9.8145L13.1302+11.3835L13.1302+12.9524C13.1302+13.2408+13.004+13.5022+12.8003+13.6916C12.5966+13.881+12.3154+13.9983+12.0052+13.9983L11.3177+13.9983L10.6302+13.9983C10.4231+13.9983+10.2356+14.0763+10.0999+14.2025C9.96417+14.3287+9.88022+14.503+9.88022+14.6956C9.88022+14.8881+9.96417+15.0625+10.0999+15.1887C10.2356+15.3149+10.4231+15.3929+10.6302+15.3929L11.3177+15.3929L12.0052+15.3929C12.7289+15.3929+13.3852+15.1192+13.8605+14.6773C14.3358+14.2354+14.6302+13.6253+14.6302+12.9524L14.6302+11.5279L14.6302+10.1033L14.6302+5.80675Z" fill-rule="evenodd" fill="#6a6a6a" opacity="1"/>
<path d="M4.10038+8C4.10038+7.46914+4.55869+7.0388+5.12405+7.0388C5.68941+7.0388+6.14773+7.46914+6.14773+8C6.14773+8.53086+5.68941+8.9612+5.12405+8.9612C4.55869+8.9612+4.10038+8.53086+4.10038+8Z" fill-rule="evenodd" fill="#6a6a6a" opacity="1"/>
<path d="M25.1142+28.3038C25.1142+27.773+25.5726+27.3426+26.1379+27.3426C26.7033+27.3426+27.1616+27.773+27.1616+28.3038C27.1616+28.8347+26.7033+29.265+26.1379+29.265C25.5726+29.265+25.1142+28.8347+25.1142+28.3038Z" fill-rule="evenodd" fill="#000000" opacity="1"/>
<path d="M29.5539+28.3038C29.5539+27.773+30.0123+27.3426+30.5776+27.3426C31.143+27.3426+31.6013+27.773+31.6013+28.3038C31.6013+28.8347+31.143+29.265+30.5776+29.265C30.0123+29.265+29.5539+28.8347+29.5539+28.3038Z" fill-rule="evenodd" fill="#000000" opacity="1"/>
<path d="M9.88022+8C9.88022+7.46914+10.3386+7.0388+10.9039+7.0388C11.4693+7.0388+11.9276+7.46914+11.9276+8C11.9276+8.53086+11.4693+8.9612+10.9039+8.9612C10.3386+8.9612+9.88022+8.53086+9.88022+8Z" fill-rule="evenodd" fill="#6a6a6a" opacity="1"/>
<path d="M29.2492+28C29.2492+27.4691+29.7076+27.0388+30.2729+27.0388C30.8383+27.0388+31.2966+27.4691+31.2966+28C31.2966+28.5309+30.8383+28.9612+30.2729+28.9612C29.7076+28.9612+29.2492+28.5309+29.2492+28Z" fill-rule="evenodd" fill="#000000" opacity="1"/>
<path d="M6.97632+8C6.97632+7.46914+7.43464+7.0388+8+7.0388C8.56536+7.0388+9.02368+7.46914+9.02368+8C9.02368+8.53086+8.56536+8.9612+8+8.9612C7.43464+8.9612+6.97632+8.53086+6.97632+8Z" fill-rule="evenodd" fill="#6a6a6a" opacity="1"/>
<path d="M1.39778+10.1033L1.39778+11.5279L1.39778+12.9524C1.39778+13.6252+1.69215+14.2353+2.16747+14.6773C2.64278+15.1192+3.29903+15.3929+4.02278+15.3929L4.71026+15.3929L5.39774+15.3929C5.60484+15.3929+5.79234+15.3149+5.92806+15.1887C6.06378+15.0625+6.14773+14.8882+6.14773+14.6956C6.14773+14.503+6.06378+14.3287+5.92806+14.2025C5.79234+14.0763+5.60484+13.9983+5.39774+13.9983L4.71026+13.9983L4.02278+13.9983C3.71258+13.9983+3.43133+13.881+3.22763+13.6916C3.02393+13.5022+2.89778+13.2407+2.89778+12.9524L2.89778+11.3834L2.89778+9.81451C2.89778+9.72205+2.89778+6.18805+2.89778+6.09559L2.89778+4.52664L2.89778+2.95769C2.89778+2.66934+3.02393+2.40787+3.22763+2.21848C3.43133+2.02909+3.71258+1.91179+4.02278+1.91179L4.71026+1.91179L5.39774+1.91179C5.60485+1.91179+5.79234+1.83377+5.92806+1.70759C6.06379+1.58142+6.14773+1.40709+6.14773+1.21449C6.14773+1.02194+6.06379+0.847618+5.92806+0.72143C5.79234+0.595242+5.60485+0.517192+5.39774+0.517192L4.71026+0.517192L4.02278+0.517192C3.29903+0.517192+2.64278+0.790892+2.16747+1.2328C1.69216+1.67472+1.39778+2.28484+1.39778+2.95769L1.39778+4.38224L1.39778+5.80679L1.39778+10.1033Z" fill-rule="evenodd" fill="#6a6a6a" opacity="1"/>
</g>
</svg>
