<?xml version="1.0" encoding="UTF-8" standalone="no"?>
<svg
        xmlns:dc="http://purl.org/dc/elements/1.1/"
        xmlns:cc="http://creativecommons.org/ns#"
        xmlns:rdf="http://www.w3.org/1999/02/22-rdf-syntax-ns#"
        xmlns="http://www.w3.org/2000/svg"
        xmlns:sodipodi="http://sodipodi.sourceforge.net/DTD/sodipodi-0.dtd"
        xmlns:inkscape="http://www.inkscape.org/namespaces/inkscape"
        sodipodi:docname="openshift-cluster.svg"
        inkscape:version="1.0beta1 (76ce730, 2019-10-19)"
        id="svg28"
        preserveAspectRatio="xMidYMid"
        version="1.1"
        viewBox="0 0 13 13"
        height="13"
        width="13">
  <defs
     id="defs22" />
  <sodipodi:namedview
     inkscape:window-maximized="0"
     inkscape:window-y="0"
     inkscape:window-x="0"
     inkscape:window-height="987"
     inkscape:window-width="1600"
     showgrid="false"
     inkscape:document-rotation="0"
     inkscape:current-layer="layer1"
     inkscape:document-units="mm"
     inkscape:cy="-1789.1802"
     inkscape:cx="-1151.243"
     inkscape:zoom="0.043705627"
     inkscape:pageshadow="2"
     inkscape:pageopacity="0.0"
     borderopacity="1.0"
     bordercolor="#666666"
     pagecolor="#ffffff"
     id="base" />
  <metadata
     id="metadata25">
    <rdf:RDF>
      <cc:Work
         rdf:about="">
        <dc:format>image/svg+xml</dc:format>
        <dc:type
           rdf:resource="http://purl.org/dc/dcmitype/StillImage" />
        <dc:title></dc:title>
      </cc:Work>
    </rdf:RDF>
  </metadata>
  <g
     id="layer1"
     inkscape:groupmode="layer"
     inkscape:label="Layer 1">
    <g
       transform="matrix(0.09065551,0,0,0.09870969,-3.3523501,-1.8938033)"
       id="g112">
      <g
         id="g60">
	<path
   inkscape:connector-curvature="0"
   fill="#DB242F"
   d="m 78.621,78.245 -23.025,8.379 c 0.294,3.692 0.931,7.339 1.824,10.911 L 79.293,89.571 C 78.582,85.874 78.33,82.062 78.621,78.245"
   id="path48" />

	<path
   inkscape:connector-curvature="0"
   fill="#DB242F"
   d="m 180.379,52.784 c -1.605,-3.312 -3.463,-6.514 -5.615,-9.53 l -23.021,8.378 c 2.679,2.741 4.927,5.82 6.765,9.114 z"
   id="path50" />

	<path
   inkscape:connector-curvature="0"
   fill="#DB242F"
   d="m 129.725,46.263 c 4.789,2.235 8.938,5.284 12.437,8.859 l 23.022,-8.38 C 158.807,37.795 150.121,30.318 139.479,25.352 106.569,10.006 67.305,24.296 51.96,57.2 46.993,67.849 45.148,79.161 46.014,90.112 l 23.024,-8.378 c 0.382,-4.988 1.601,-9.987 3.831,-14.78 9.971,-21.381 35.475,-30.659 56.856,-20.691"
   id="path52" />

	<path
   inkscape:connector-curvature="0"
   fill="#DB242F"
   d="m 58.854,97.011 -21.875,7.967 c 2.011,7.977 5.496,15.553 10.287,22.297 l 22.973,-8.361 C 64.342,112.857 60.42,105.196 58.854,97.011"
   id="path54" />

	<path
   inkscape:connector-curvature="0"
   fill="#DB242F"
   d="m 154.277,88.331 c -0.367,4.985 -1.625,9.985 -3.863,14.782 -9.971,21.383 -35.476,30.661 -56.854,20.692 -4.796,-2.238 -8.976,-5.262 -12.463,-8.844 l -22.974,8.363 c 6.361,8.947 15.039,16.428 25.687,21.396 32.91,15.344 72.169,1.053 87.515,-31.855 4.97,-10.644 6.804,-21.952 5.926,-32.895 z"
   id="path56" />

	<path
   inkscape:connector-curvature="0"
   fill="#DB242F"
   d="m 159.938,60.224 -21.873,7.962 c 4.062,7.279 5.981,15.662 5.354,24.091 l 22.973,-8.357 c -0.658,-8.245 -2.857,-16.292 -6.454,-23.696"
   id="path58" />

</g>
    </g>
  </g>
</svg>
