<?xml version="1.0" encoding="UTF-8" standalone="no"?> <!-- Created with Vectornator for iOS (http://vectornator.io/) --><!DOCTYPE svg PUBLIC "-//W3C//DTD SVG 1.1//EN" "http://www.w3.org/Graphics/SVG/1.1/DTD/svg11.dtd">
<svg height="100%" style="fill-rule:nonzero;clip-rule:evenodd;stroke-linecap:round;stroke-linejoin:round;" xmlns:xlink="http://www.w3.org/1999/xlink" xmlns="http://www.w3.org/2000/svg" xml:space="preserve" width="100%" xmlns:vectornator="http://vectornator.io" version="1.1" viewBox="0 0 13.8285 16.7844">
<metadata>
<vectornator:setting key="DimensionsVisible" value="0"/>
<vectornator:setting key="PencilOnly" value="0"/>
<vectornator:setting key="SnapToPoints" value="0"/>
<vectornator:setting key="OutlineMode" value="0"/>
<vectornator:setting key="CMYKEnabledKey" value="0"/>
<vectornator:setting key="RulersVisible" value="1"/>
<vectornator:setting key="SnapToEdges" value="0"/>
<vectornator:setting key="GuidesVisible" value="0"/>
<vectornator:setting key="DisplayWhiteBackground" value="0"/>
<vectornator:setting key="doHistoryDisabled" value="0"/>
<vectornator:setting key="SnapToGuides" value="1"/>
<vectornator:setting key="TimeLapseWatermarkDisabled" value="0"/>
<vectornator:setting key="Units" value="Points"/>
<vectornator:setting key="DynamicGuides" value="1"/>
<vectornator:setting key="IsolateActiveLayer" value="0"/>
<vectornator:setting key="SnapToGrid" value="0"/>
</metadata>
<defs/>
<g id="Untitled" vectornator:layerName="Untitled">
<path d="M32.5846+26.6883L29.8923+26.6883C29.5949+26.6883+29.3538+26.9315+29.3538+27.2314C29.3538+27.5314+29.5949+27.7745+29.8923+27.7745L32.5846+27.7745C32.882+27.7745+33.1231+28.0177+33.1231+28.3176L33.1231+35.378C33.1231+35.6779+32.882+35.9211+32.5846+35.9211L21.8154+35.9211C21.518+35.9211+21.277+35.6779+21.277+35.378L21.277+28.3176C21.277+28.0176+21.518+27.7745+21.8154+27.7745L24.5077+27.7745C24.805+27.7745+25.0462+27.5313+25.0462+27.2314C25.0462+26.9314+24.805+26.6883+24.5077+26.6883L21.8154+26.6883C20.9232+26.6883+20.2+27.4177+20.2+28.3176L20.2+35.3779C20.2+36.2777+20.9232+37.0072+21.8154+37.0072L32.5846+37.0072C33.4767+37.0072+34.2+36.2777+34.2+35.3779L34.2+28.3176C34.2+27.4178+33.4767+26.6883+32.5846+26.6883Z" fill-rule="evenodd" fill="#000000" opacity="1"/>
<path stroke="#000000" fill-rule="evenodd" stroke-width="0.1" d="M30.273+24.85L27.5807+22.1577C27.3705+21.9475+27.0296+21.9475+26.8193+22.1577L24.127+24.85C23.9204+25.0639+23.9264+25.4047+24.1402+25.6113C24.3489+25.8129+24.6797+25.8129+24.8884+25.6113L26.6616+23.8382L26.6616+32.7691C26.6616+33.0665+26.9027+33.3076+27.2001+33.3076C27.4974+33.3076+27.7385+33.0665+27.7385+32.7691L27.7385+23.8382L29.5117+25.6114C29.7256+25.818+30.0665+25.812+30.2731+25.5981C30.4745+25.3894+30.4745+25.0586+30.273+24.85Z" fill="#000000" stroke-linecap="square" opacity="1" stroke-linejoin="miter"/>
<path d="M32.5846+26.6883L29.8923+26.6883C29.5949+26.6883+29.3538+26.9315+29.3538+27.2314C29.3538+27.5314+29.5949+27.7745+29.8923+27.7745L32.5846+27.7745C32.882+27.7745+33.1231+28.0177+33.1231+28.3176L33.1231+35.378C33.1231+35.6779+32.882+35.9211+32.5846+35.9211L21.8154+35.9211C21.518+35.9211+21.277+35.6779+21.277+35.378L21.277+28.3176C21.277+28.0176+21.518+27.7745+21.8154+27.7745L24.5077+27.7745C24.805+27.7745+25.0462+27.5313+25.0462+27.2314C25.0462+26.9314+24.805+26.6883+24.5077+26.6883L21.8154+26.6883C20.9232+26.6883+20.2+27.4177+20.2+28.3176L20.2+35.3779C20.2+36.2777+20.9232+37.0072+21.8154+37.0072L32.5846+37.0072C33.4767+37.0072+34.2+36.2777+34.2+35.3779L34.2+28.3176C34.2+27.4178+33.4767+26.6883+32.5846+26.6883Z" fill-rule="evenodd" fill="#000000" opacity="1"/>
<path stroke="#000000" fill-rule="evenodd" stroke-width="0.1" d="M30.273+24.85L27.5807+22.1577C27.3705+21.9475+27.0296+21.9475+26.8193+22.1577L24.127+24.85C23.9204+25.0639+23.9264+25.4047+24.1402+25.6113C24.3489+25.8129+24.6797+25.8129+24.8884+25.6113L26.6616+23.8382L26.6616+32.7691C26.6616+33.0665+26.9027+33.3076+27.2001+33.3076C27.4974+33.3076+27.7385+33.0665+27.7385+32.7691L27.7385+23.8382L29.5117+25.6114C29.7256+25.818+30.0665+25.812+30.2731+25.5981C30.4745+25.3894+30.4745+25.0586+30.273+24.85Z" fill="#000000" stroke-linecap="square" opacity="1" stroke-linejoin="miter"/>
<path d="M32.5846+26.6883L29.8923+26.6883C29.5949+26.6883+29.3538+26.9315+29.3538+27.2314C29.3538+27.5314+29.5949+27.7745+29.8923+27.7745L32.5846+27.7745C32.882+27.7745+33.1231+28.0177+33.1231+28.3176L33.1231+35.378C33.1231+35.6779+32.882+35.9211+32.5846+35.9211L21.8154+35.9211C21.518+35.9211+21.277+35.6779+21.277+35.378L21.277+28.3176C21.277+28.0176+21.518+27.7745+21.8154+27.7745L24.5077+27.7745C24.805+27.7745+25.0462+27.5313+25.0462+27.2314C25.0462+26.9314+24.805+26.6883+24.5077+26.6883L21.8154+26.6883C20.9232+26.6883+20.2+27.4177+20.2+28.3176L20.2+35.3779C20.2+36.2777+20.9232+37.0072+21.8154+37.0072L32.5846+37.0072C33.4767+37.0072+34.2+36.2777+34.2+35.3779L34.2+28.3176C34.2+27.4178+33.4767+26.6883+32.5846+26.6883Z" fill-rule="evenodd" fill="#000000" opacity="1"/>
<path stroke="#000000" fill-rule="evenodd" stroke-width="0.1" d="M30.273+24.85L27.5807+22.1577C27.3705+21.9475+27.0296+21.9475+26.8193+22.1577L24.127+24.85C23.9204+25.0639+23.9264+25.4047+24.1402+25.6113C24.3489+25.8129+24.6797+25.8129+24.8884+25.6113L26.6616+23.8382L26.6616+32.7691C26.6616+33.0665+26.9027+33.3076+27.2001+33.3076C27.4974+33.3076+27.7385+33.0665+27.7385+32.7691L27.7385+23.8382L29.5117+25.6114C29.7256+25.818+30.0665+25.812+30.2731+25.5981C30.4745+25.3894+30.4745+25.0586+30.273+24.85Z" fill="#000000" stroke-linecap="square" opacity="1" stroke-linejoin="miter"/>
<path d="M32.5846+26.6883L29.8923+26.6883C29.5949+26.6883+29.3538+26.9315+29.3538+27.2314C29.3538+27.5314+29.5949+27.7745+29.8923+27.7745L32.5846+27.7745C32.882+27.7745+33.1231+28.0177+33.1231+28.3176L33.1231+35.378C33.1231+35.6779+32.882+35.9211+32.5846+35.9211L21.8154+35.9211C21.518+35.9211+21.277+35.6779+21.277+35.378L21.277+28.3176C21.277+28.0176+21.518+27.7745+21.8154+27.7745L24.5077+27.7745C24.805+27.7745+25.0462+27.5313+25.0462+27.2314C25.0462+26.9314+24.805+26.6883+24.5077+26.6883L21.8154+26.6883C20.9232+26.6883+20.2+27.4177+20.2+28.3176L20.2+35.3779C20.2+36.2777+20.9232+37.0072+21.8154+37.0072L32.5846+37.0072C33.4767+37.0072+34.2+36.2777+34.2+35.3779L34.2+28.3176C34.2+27.4178+33.4767+26.6883+32.5846+26.6883Z" fill-rule="evenodd" fill="#000000" opacity="1"/>
<path stroke="#000000" fill-rule="evenodd" stroke-width="0.1" d="M30.273+24.85L27.5807+22.1577C27.3705+21.9475+27.0296+21.9475+26.8193+22.1577L24.127+24.85C23.9204+25.0639+23.9264+25.4047+24.1402+25.6113C24.3489+25.8129+24.6797+25.8129+24.8884+25.6113L26.6616+23.8382L26.6616+32.7691C26.6616+33.0665+26.9027+33.3076+27.2001+33.3076C27.4974+33.3076+27.7385+33.0665+27.7385+32.7691L27.7385+23.8382L29.5117+25.6114C29.7256+25.818+30.0665+25.812+30.2731+25.5981C30.4745+25.3894+30.4745+25.0586+30.273+24.85Z" fill="#000000" stroke-linecap="square" opacity="1" stroke-linejoin="miter"/>
<path d="M32.5846+26.6883L29.8923+26.6883C29.5949+26.6883+29.3538+26.9315+29.3538+27.2314C29.3538+27.5314+29.5949+27.7745+29.8923+27.7745L32.5846+27.7745C32.882+27.7745+33.1231+28.0177+33.1231+28.3176L33.1231+35.378C33.1231+35.6779+32.882+35.9211+32.5846+35.9211L21.8154+35.9211C21.518+35.9211+21.277+35.6779+21.277+35.378L21.277+28.3176C21.277+28.0176+21.518+27.7745+21.8154+27.7745L24.5077+27.7745C24.805+27.7745+25.0462+27.5313+25.0462+27.2314C25.0462+26.9314+24.805+26.6883+24.5077+26.6883L21.8154+26.6883C20.9232+26.6883+20.2+27.4177+20.2+28.3176L20.2+35.3779C20.2+36.2777+20.9232+37.0072+21.8154+37.0072L32.5846+37.0072C33.4767+37.0072+34.2+36.2777+34.2+35.3779L34.2+28.3176C34.2+27.4178+33.4767+26.6883+32.5846+26.6883Z" fill-rule="evenodd" fill="#000000" opacity="1"/>
<path stroke="#000000" fill-rule="evenodd" stroke-width="0.1" d="M30.273+24.85L27.5807+22.1577C27.3705+21.9475+27.0296+21.9475+26.8193+22.1577L24.127+24.85C23.9204+25.0639+23.9264+25.4047+24.1402+25.6113C24.3489+25.8129+24.6797+25.8129+24.8884+25.6113L26.6616+23.8382L26.6616+32.7691C26.6616+33.0665+26.9027+33.3076+27.2001+33.3076C27.4974+33.3076+27.7385+33.0665+27.7385+32.7691L27.7385+23.8382L29.5117+25.6114C29.7256+25.818+30.0665+25.812+30.2731+25.5981C30.4745+25.3894+30.4745+25.0586+30.273+24.85Z" fill="#000000" stroke-linecap="square" opacity="1" stroke-linejoin="miter"/>
<path d="M32.5846+26.6883L29.8923+26.6883C29.5949+26.6883+29.3538+26.9315+29.3538+27.2314C29.3538+27.5314+29.5949+27.7745+29.8923+27.7745L32.5846+27.7745C32.882+27.7745+33.1231+28.0177+33.1231+28.3176L33.1231+35.378C33.1231+35.6779+32.882+35.9211+32.5846+35.9211L21.8154+35.9211C21.518+35.9211+21.277+35.6779+21.277+35.378L21.277+28.3176C21.277+28.0176+21.518+27.7745+21.8154+27.7745L24.5077+27.7745C24.805+27.7745+25.0462+27.5313+25.0462+27.2314C25.0462+26.9314+24.805+26.6883+24.5077+26.6883L21.8154+26.6883C20.9232+26.6883+20.2+27.4177+20.2+28.3176L20.2+35.3779C20.2+36.2777+20.9232+37.0072+21.8154+37.0072L32.5846+37.0072C33.4767+37.0072+34.2+36.2777+34.2+35.3779L34.2+28.3176C34.2+27.4178+33.4767+26.6883+32.5846+26.6883Z" fill-rule="evenodd" fill="#000000" opacity="1"/>
<path stroke="#000000" fill-rule="evenodd" stroke-width="0.1" d="M30.273+24.85L27.5807+22.1577C27.3705+21.9475+27.0296+21.9475+26.8193+22.1577L24.127+24.85C23.9204+25.0639+23.9264+25.4047+24.1402+25.6113C24.3489+25.8129+24.6797+25.8129+24.8884+25.6113L26.6616+23.8382L26.6616+32.7691C26.6616+33.0665+26.9027+33.3076+27.2001+33.3076C27.4974+33.3076+27.7385+33.0665+27.7385+32.7691L27.7385+23.8382L29.5117+25.6114C29.7256+25.818+30.0665+25.812+30.2731+25.5981C30.4745+25.3894+30.4745+25.0586+30.273+24.85Z" fill="#000000" stroke-linecap="square" opacity="1" stroke-linejoin="miter"/>
<path d="M32.5846+26.6883L29.8923+26.6883C29.5949+26.6883+29.3538+26.9315+29.3538+27.2314C29.3538+27.5314+29.5949+27.7745+29.8923+27.7745L32.5846+27.7745C32.882+27.7745+33.1231+28.0177+33.1231+28.3176L33.1231+35.378C33.1231+35.6779+32.882+35.9211+32.5846+35.9211L21.8154+35.9211C21.518+35.9211+21.277+35.6779+21.277+35.378L21.277+28.3176C21.277+28.0176+21.518+27.7745+21.8154+27.7745L24.5077+27.7745C24.805+27.7745+25.0462+27.5313+25.0462+27.2314C25.0462+26.9314+24.805+26.6883+24.5077+26.6883L21.8154+26.6883C20.9232+26.6883+20.2+27.4177+20.2+28.3176L20.2+35.3779C20.2+36.2777+20.9232+37.0072+21.8154+37.0072L32.5846+37.0072C33.4767+37.0072+34.2+36.2777+34.2+35.3779L34.2+28.3176C34.2+27.4178+33.4767+26.6883+32.5846+26.6883Z" fill-rule="evenodd" fill="#000000" opacity="1"/>
<path stroke="#000000" fill-rule="evenodd" stroke-width="0.1" d="M30.273+24.85L27.5807+22.1577C27.3705+21.9475+27.0296+21.9475+26.8193+22.1577L24.127+24.85C23.9204+25.0639+23.9264+25.4047+24.1402+25.6113C24.3489+25.8129+24.6797+25.8129+24.8884+25.6113L26.6616+23.8382L26.6616+32.7691C26.6616+33.0665+26.9027+33.3076+27.2001+33.3076C27.4974+33.3076+27.7385+33.0665+27.7385+32.7691L27.7385+23.8382L29.5117+25.6114C29.7256+25.818+30.0665+25.812+30.2731+25.5981C30.4745+25.3894+30.4745+25.0586+30.273+24.85Z" fill="#000000" stroke-linecap="square" opacity="1" stroke-linejoin="miter"/>
<path d="M32.5846+26.6883L29.8923+26.6883C29.5949+26.6883+29.3538+26.9315+29.3538+27.2314C29.3538+27.5314+29.5949+27.7745+29.8923+27.7745L32.5846+27.7745C32.882+27.7745+33.1231+28.0177+33.1231+28.3176L33.1231+35.378C33.1231+35.6779+32.882+35.9211+32.5846+35.9211L21.8154+35.9211C21.518+35.9211+21.277+35.6779+21.277+35.378L21.277+28.3176C21.277+28.0176+21.518+27.7745+21.8154+27.7745L24.5077+27.7745C24.805+27.7745+25.0462+27.5313+25.0462+27.2314C25.0462+26.9314+24.805+26.6883+24.5077+26.6883L21.8154+26.6883C20.9232+26.6883+20.2+27.4177+20.2+28.3176L20.2+35.3779C20.2+36.2777+20.9232+37.0072+21.8154+37.0072L32.5846+37.0072C33.4767+37.0072+34.2+36.2777+34.2+35.3779L34.2+28.3176C34.2+27.4178+33.4767+26.6883+32.5846+26.6883Z" fill-rule="evenodd" fill="#000000" opacity="1"/>
<path stroke="#000000" fill-rule="evenodd" stroke-width="0.1" d="M30.273+24.85L27.5807+22.1577C27.3705+21.9475+27.0296+21.9475+26.8193+22.1577L24.127+24.85C23.9204+25.0639+23.9264+25.4047+24.1402+25.6113C24.3489+25.8129+24.6797+25.8129+24.8884+25.6113L26.6616+23.8382L26.6616+32.7691C26.6616+33.0665+26.9027+33.3076+27.2001+33.3076C27.4974+33.3076+27.7385+33.0665+27.7385+32.7691L27.7385+23.8382L29.5117+25.6114C29.7256+25.818+30.0665+25.812+30.2731+25.5981C30.4745+25.3894+30.4745+25.0586+30.273+24.85Z" fill="#000000" stroke-linecap="square" opacity="1" stroke-linejoin="miter"/>
<path d="M11.9654+6.45388L9.40768+6.45388C9.12514+6.45388+8.89612+6.68491+8.89612+6.96982C8.89612+7.25482+9.12514+7.48577+9.40768+7.48577L11.9654+7.48577C12.2479+7.48577+12.4769+7.71679+12.4769+8.00171L12.4769+14.7091C12.4769+14.994+12.2479+15.225+11.9654+15.225L1.73465+15.225C1.45211+15.225+1.2231+14.994+1.2231+14.7091L1.2231+8.00171C1.2231+7.71672+1.45211+7.48577+1.73465+7.48577L4.29232+7.48577C4.57479+7.48577+4.80388+7.25474+4.80388+6.96982C4.80388+6.68482+4.57479+6.45388+4.29232+6.45388L1.73465+6.45388C0.887028+6.45388+0.2+7.1468+0.2+8.00171L0.2+14.709C0.2+15.5639+0.887028+16.2568+1.73465+16.2568L11.9654+16.2568C12.8129+16.2568+13.5+15.5639+13.5+14.709L13.5+8.00171C13.5+7.14689+12.8129+6.45388+11.9654+6.45388Z" fill-rule="evenodd" fill="#6a6a6a" opacity="1"/>
<path stroke="#6a6a6a" fill-rule="evenodd" stroke-width="0.1" d="M9.76935+4.70746L7.21167+2.14978C7.01193+1.95008+6.68807+1.95008+6.48833+2.14978L3.93065+4.70746C3.73439+4.91068+3.74004+5.23451+3.9432+5.43077C4.14145+5.62224+4.45575+5.62224+4.65401+5.43077L6.33853+3.74626L6.33853+12.2306C6.33853+12.5132+6.56755+12.7422+6.85009+12.7422C7.13254+12.7422+7.36156+12.5132+7.36156+12.2306L7.36156+3.74629L9.04608+5.4308C9.24932+5.62706+9.57317+5.62143+9.76945+5.41821C9.96077+5.21997+9.96077+4.90571+9.76935+4.70746Z" fill="#6a6a6a" stroke-linecap="square" opacity="1" stroke-linejoin="miter"/>
</g>
</svg>
